<?xml version="1.0" encoding="utf-8"?>
<!-- Generator: Adobe Illustrator 24.2.3, SVG Export Plug-In . SVG Version: 6.00 Build 0)  -->
<svg version="1.1" id="Layer_1" xmlns="http://www.w3.org/2000/svg" xmlns:xlink="http://www.w3.org/1999/xlink" x="0px" y="0px"
	 viewBox="0 0 468.3 96" style="enable-background:new 0 0 468.3 96;" xml:space="preserve">
<style type="text/css">
	.st0{fill:#05284C;}
	.st1{fill:#082A4E;}
</style>
<g>
	<path class="st0" d="M0,87.2c0.9-0.6,1.1-1.6,1.6-2.4c2-2.9,7.4-5.1,10.8-4.2c1.3,0.3,1,1.2,0.5,1.9c-0.8,1.1-1.8,2-2.5,3
		c-1.1,1.6-0.8,2.5,1.1,3c3.3,0.9,6.6,0.5,10,0c6-0.9,11.6-2.8,16.5-6.5c2.9-2.2,2.9-3.5-0.1-5.7c-2.6-1.8-5.2-3.5-7.7-5.2
		c-2.9-2-3.4-3.9-2-7c9.2-20.5,18.5-40.9,27.7-61.4c0.6-1.3,1.5-2.2,2.8-2.9c0.3,0,0.6,0,0.9,0C61,0.6,62,1.8,62.7,3.3
		c13.7,29.7,27.4,59.4,41,89.1c0.3,0.6,0.5,1.1,0.7,1.7c0.4,1.2-0.1,1.8-1.3,1.8c-4.1,0-8.3,0.1-12.4,0c-1.8,0-2.6-1.4-3.3-2.9
		C82,81.2,76.6,69.3,71.1,57.5c-1.8-3.8-1.7-3.8-5.9-2.6c-5.5,1.5-11,2.7-16.3,4.8c-1.7,0.7-4,1-4.3,3.1c-0.3,2.1,1.9,3,3.4,4.1
		c1.8,1.4,3.6,2.7,5.2,4.3c3.6,3.7,3.3,7.1-0.9,10.2c-8.2,5.9-17.5,9.4-27.4,11.3c-6.2,1.3-12.5,1.9-18.8,1c-2.5-0.4-4.6-1.1-6-3.3
		C0,89.3,0,88.3,0,87.2z M38,58.3c0.6,0,0.9,0.1,1.1,0c8.7-2.8,17.4-5.6,26.3-7.9c1.8-0.5,1.7-1.5,1-2.8C63,40,59.6,32.5,56.1,25
		c-0.3-0.5-0.4-1.4-1.1-1.4c-0.8,0-1,0.9-1.3,1.5c-2.6,5.5-5.2,11-7.9,16.6C43.3,47.1,40.7,52.6,38,58.3z"/>
	<path class="st1" d="M269,53.4c0-6,0-11.4,0-16.7c0-0.9,0.1-1.7,0-2.6c-0.1-1.4,0.2-2,1.9-2c1.7,0,1.8,0.7,1.8,2.1
		c0,9.1,0,18.2,0,27.3c0,0.8,0.6,2.2-0.5,2.4c-1.3,0.3-2.8,0.5-4.1-0.9c-4.2-4.7-8.6-9.2-12.9-13.8c-2-2.2-4-4.3-6.1-6.5
		c-0.8,0.4-0.4,1.1-0.4,1.7c0,5.9,0,11.8,0,17.7c0,1.2,0.1,2-1.6,2c-1.5-0.1-2-0.4-2-1.9c0.1-9.2,0-18.3,0.1-27.5
		c0-0.8-0.7-2.2,0.6-2.3c1.2-0.2,2.5-0.5,3.7,0.7c4.4,4.8,9,9.5,13.5,14.2C264.8,49,266.6,50.9,269,53.4z"/>
	<path class="st1" d="M337.2,64.4c-7.1-0.5-7.1-0.5-8-7.3c-0.1-1-0.4-2-0.5-3c0-0.5-0.6-1.3,0.3-1.6c0.8-0.2,1.5,0,1.9,0.8
		c0.8,1.7,1.6,3.3,2.5,5c1.8,3.5,7.6,4.4,10.4,1.7c2.2-2,1.7-5.6-1.1-7.4c-2-1.3-4.3-1.8-6.5-2.6c-5.2-1.8-7.6-5-7.6-9.9
		c0-3.1,1.5-5.3,4-6.9c4.5-2.7,9.3-2.6,14.3-1.4c1.1,0.3,1.2,1.1,1.3,1.9c0.4,2.3,0.9,4.6,1.2,6.9c0.1,0.5,0.8,1.4-0.4,1.7
		c-0.8,0.2-1.4-0.1-1.9-1c-0.8-1.7-1.7-3.3-2.6-4.9c-1.2-2.1-3.2-2.9-6-2.3c-2.1,0.5-3.8,1.5-4,3.9c-0.2,2.4,1,4.2,3.5,5.2
		c2,0.8,4.1,1.4,6.1,2.2c5.5,2.3,7.5,5.6,6.8,10.8c-0.5,3.9-4.6,7.4-9.5,8C340.2,64.5,338.6,64.8,337.2,64.4z"/>
	<path class="st1" d="M430.3,63.7c-0.3,0.1-0.4,0.2-0.5,0.2c-6.6,0.4-6.6,0.4-9.1-5.7c-2.1-5.1-2.1-5.1-7.7-5.1
		c-6.3,0-6.3,0-8.6,5.7c-0.3,0.8-0.6,1.6-1,2.4c-1.3,3.1-1.3,3.1-4.9,2.5c3.8-9.2,7.5-18.3,11.3-27.5c0.1-0.2,0.2-0.4,0.3-0.6
		c1.4-3.4,2.8-4.2,6.5-3.4c0.7,0.1,0.9,0.5,1.1,1C421.9,43.3,426.1,53.5,430.3,63.7z M417.3,49.8c-1.6-3.8-3-7.3-4.6-11.2
		c-1.6,3.9-3,7.5-4.5,11.2C411.3,49.8,414.1,49.8,417.3,49.8z"/>
	<path class="st1" d="M154.8,63.9c-2.3,0-4.3,0-6.3,0c-1,0-1.3-0.6-1.6-1.4c-1.1-2.7-2.2-5.3-3.2-8c-0.5-1.2-1.1-1.6-2.4-1.6
		c-2.8,0.1-5.6,0.1-8.4,0c-1.3,0-2,0.3-2.4,1.6c-0.8,2.3-2,4.4-2.6,6.7c-0.7,2.7-2.3,3.1-4.9,2.4c2.1-5.1,4.1-10.1,6.2-15.1
		c2-4.9,4.1-9.9,6.1-14.8c0.5-1.4,1.2-1.9,2.5-1.6c1.4,0.3,3.4-1.1,4.2,0.8C146.2,43.2,150.4,53.4,154.8,63.9z M132.4,49.8
		c3.2,0,6,0,9.2,0c-1.5-3.7-3-7.3-4.6-11.2C135.4,42.5,134,46,132.4,49.8z"/>
	<path class="st1" d="M231.4,63.9c-2.2,0-4.2-0.1-6.2,0c-1,0-1.3-0.6-1.6-1.3c-1.1-2.7-2.3-5.4-3.3-8.2c-0.4-1.1-0.9-1.4-2-1.4
		c-3,0.1-5.9,0.1-8.9,0c-1.2,0-1.8,0.5-2.2,1.5c-0.8,2.3-1.9,4.4-2.6,6.7c-0.8,2.5-2.2,3.2-4.8,2.4c1.7-4.2,3.4-8.3,5-12.5
		c2.3-5.7,4.7-11.3,6.9-17c0.6-1.5,1.3-2,3-2.1c2.9-0.3,4.1,0.8,5.2,3.5c3.3,8.7,7,17.2,10.6,25.8C230.7,62.1,231,62.9,231.4,63.9z
		 M218.3,49.8c-1.6-3.8-3-7.3-4.7-11.2c-1.6,4-3.1,7.5-4.6,11.2C212.3,49.8,215.2,49.8,218.3,49.8z"/>
	<path class="st1" d="M161.6,32.3c7.1-0.5,7.1-0.5,9.9,5.8c2.4,5.5,4.9,11,7.5,16.9c3.1-6.9,6.1-13.3,8.7-19.9
		c1-2.5,2.2-3.8,5.2-2.7c-2.3,5.1-4.6,10.3-6.9,15.5c-2.2,4.9-4.4,9.7-6.5,14.7c-0.5,1.2-1.3,1.3-2.3,1.3c-1.1,0-1.8-0.1-2.4-1.3
		c-4.4-9.9-8.8-19.8-13.2-29.7C161.6,32.8,161.6,32.6,161.6,32.3z"/>
	<path class="st1" d="M436,32.6c5.9-1.9,9.4,0.6,12.1,5.4c1.5,2.7,3.7,5.2,5.8,8c2.8-3.8,5.6-7.4,8.3-11.1c2.2-2.9,2.2-2.9,6.2-2.4
		c-3.9,5.3-7.7,10.5-11.5,15.6c-0.9,1.2-1.3,2.4-1.3,3.8c0.1,3.5,0,7,0.1,10.5c0,1.3-0.4,1.7-1.7,1.7c-5.2,0.1-5.6,0.1-5.1-4.9
		c0.6-6.6-1.1-12-5.6-16.9C440.4,39.2,438.3,35.7,436,32.6z"/>
	<path class="st1" d="M301.3,32.2c4.4,0,8.7,0,13.1,0c1.3,0,1.7,0.3,1.7,1.7c0,1.3-0.4,1.7-1.7,1.7c-2.6-0.1-5.1,0.1-7.7-0.1
		c-1.7-0.1-2,0.5-2,2.1c0.1,8.1,0,16.3,0.1,24.4c0,1.6-0.4,2.1-2,2.1c-4.9-0.1-4.9,0-4.9-4.8c0-7.3,0-14.6,0-21.9
		c0-1.5-0.4-2-1.9-1.9c-2.6,0.1-5.3-0.1-7.9,0.1c-1.5,0.1-1.6-0.6-1.6-1.8c0-1.2,0.3-1.6,1.6-1.6C292.5,32.2,296.9,32.2,301.3,32.2z
		"/>
	<path class="st1" d="M377.9,32.2c4.1,0,8.3,0,12.4,0c1.1,0,2.2-0.4,2.3,1.6c0,1.9-0.9,1.7-2.1,1.7c-2.5,0-5,0.1-7.5,0
		c-1.5-0.1-1.8,0.4-1.8,1.8c0.1,8.2,0,16.4,0.1,24.7c0,1.8-0.5,2.2-2.2,2.1c-4.7-0.1-4.7,0-4.7-4.6c0-7.4,0-14.7,0-22.1
		c0-1.6-0.5-2-2-1.9c-2.6,0.1-5.1,0-7.7,0.1c-1.2,0-1.8-0.1-1.8-1.6c0-1.6,0.6-1.8,1.9-1.7C369.2,32.2,373.5,32.2,377.9,32.2z"/>
</g>
</svg>
