<?xml version="1.0" encoding="utf-8"?>
<!-- Generator: Adobe Illustrator 24.2.3, SVG Export Plug-In . SVG Version: 6.00 Build 0)  -->
<svg version="1.1" id="Layer_1" xmlns="http://www.w3.org/2000/svg" xmlns:xlink="http://www.w3.org/1999/xlink" x="0px" y="0px"
	 viewBox="0 0 787.2 358" style="enable-background:new 0 0 787.2 358;" xml:space="preserve">
<style type="text/css">
	.st0{fill:#D42031;}
	.st1{fill:#D32133;}
	.st2{fill:#D02434;}
	.st3{fill:#CB3E4F;}
	.st4{fill:#CC3B4D;}
	.st5{fill:#CC6676;}
	.st6{fill:#C04E60;}
	.st7{fill:#C04457;}
	.st8{fill:#BC374B;}
	.st9{fill:#D35C70;}
	.st10{fill:#BC6274;}
	.st11{fill:#B1384F;}
	.st12{fill:#A16475;}
	.st13{fill:#C84867;}
	.st14{fill:#AA737E;}
	.st15{fill:#F3C2C3;}
	.st16{fill:#010101;}
</style>
<g>
	<path class="st0" d="M98.8,329.9c-6.4,0.2-12.7-0.7-19.2,0.6c-0.2-3.2-0.5-6.1-0.7-9c-1.3-20.2-2.7-40.4-4-60.6
		c-0.4-5.5-0.7-10.9-1.1-16.4c-0.1-1,0.3-2.5-2.1-2.1c0.7,21.2-1,42.4,1,63.6c0.6,1-0.3,1.5-0.3,2.3c0.5,7.2,0.3,14.5-0.2,21.9
		c-2.1,0.7-4.2,1.3-6.3,0c-2.5,0.8-4.7,3.4-7,0.5c-2.8,0.5-5.3,1.9-7.8,0c-0.9,0.3-1.7,0.6-2.5,0.9c-1.1-0.2-1.9-1.3-3.8-0.5
		c2.6-56-0.4-111.5,1.7-166.3c11.5-0.9,22.8-2,34.1-0.9c0.9,0.1,1.9,0.1,3.1,0.2c0.6,6.8,1.2,13.4,1.8,20.1
		c1,12.9,1.7,25.8,3.1,38.7c0.4,4-0.7,8.4-0.8,12.6c0,0.9,0,1.7,0,2.8c0.4,1,2.2,1.2,1.9,3.1c0.3-0.1,0.5-0.1,0.8-0.2
		c1.8-25.7,3.6-51.5,5.4-77.1c12.2-2.5,24.4,0.3,36.4-1.6c1.3,7,0.9,160.6-0.3,167.1c-6.9,2.6-13.9,1.1-20.9,0.2
		c-0.8,0.3-1.5,0.6-2.3,0.8c-1.8-1-1.8-2.6-1.8-4.3c0.1-27.8,0.1-55.6,0.2-83.4c0-0.9,0.4-1.9-0.4-2.8c-1.2,0.6-1.4,1.7-1.4,2.8
		c-0.1,9.7-1.9,19.4-1.9,29.1c0,12.6-1.8,25-2.5,37.5c-0.3,6.2-1,12.4-1.6,18.6C99.3,328.6,99.1,329,98.8,329.9z"/>
	<path class="st0" d="M413.6,331.9c-11.4-0.5-22.5-0.4-33.9-1.3c-0.5-22.6,1.3-45.1,2.1-67.5c-1.8-0.3-0.7,1.7-1.9,1.7
		c-0.5-1,0.1-2,0.1-3c0.6-0.3,1.2-0.5,1.8-0.8c-0.8-23.2-2-46.3-2.4-69.8c-5.8,0-11.6,0-17.5,0c-1.1-8.8-0.7-17.4-0.8-26.1
		c23.2-1.7,46.2-1.6,69.6-2.5c-0.5,9,0.7,17.4,0.5,26.6c-5.9,0-11.6,0-17.6,0c-0.2,24.3,2.6,47.9,2.3,71.5
		C415.7,284.4,413.6,308,413.6,331.9z"/>
	<path class="st0" d="M183.1,276.4c-0.4-2.8-0.3-5,0.4-7.1c-0.7-1.4-1.4-2.7-2.1-4.1c0.6-0.5,1-0.8,1.8-1.5
		c-2.7-6.4-0.2-12.6,1.6-19.1c6.8-0.2,13.8-2,21.1,0.9c-1.1,7.1-0.7,14.4-4.2,21.1C197.7,274.2,191,275.8,183.1,276.4z"/>
	<path class="st1" d="M308.9,352.9c-1.6-0.9-3.5-1.4-5.4-0.3c-1.9,1-3.9,0.1-5.8,0.2c-0.3,1.6,1.4,2.4,1.2,3.8
		c-1.1,1-1.5-0.6-2.3-0.6c-1.1,0.3-1.4,1.3-1.9,2c-1-0.3-2-0.5-3.1-0.8c-0.2-0.9-0.5-1.8-0.6-2.2c-3.8-4.7-9.1-2-13.4-3.3
		c-0.9-0.3-1.9-0.2-2.7-0.8c0-4.4,0-8.8,0-13.2c1.3,2.1,0.6,4.4,1.2,6.8c0.4,0.6,1,1.4,1.7,2.4c1.2-0.4,2.5-0.7,3.6-0.4
		c1.3,0.8,0.7,2.1,1.1,3.3c2.1-0.8,2.3-3.7,4-3.7c2.3-0.3,3,0.9,3.9,2.3c0.3-2,1.2-2.5,3-1.7c0.4,0.9,0.8,1.9,1.3,2.9
		c2.1,0,2.3-2.2,3.9-3.1c1.1-0.1,2.6-0.6,3.7,1.1c1-0.9,2.1-1.4,3.5-0.5c0.6,0.6-0.2,1.8,0.7,2.5c2.3,0.4,0.9-3.1,2.9-2.9
		c1.3-0.3,1.4,1.2,2.5,1.5c0.9-1.4,2.2-1.9,4-1.6c0.6,1.2,1.3,2.5,2.1,4c1-1.4,0.8-3.1,2-3.9c0.4-2.2-0.5-4.2-0.6-6.3
		c1.2,0.1,0.5,1.1,1.3,1.5c0.8,0.2,1.8,0.4,2.8,0.6c1,1.3-0.1,3,0.9,4.5c0.9,0.1,1.9,0.2,2.9,0.2c1.4,0.8,1.9,2.3,3,3.4
		c1-0.8,0.2-2.3,1.6-3.2c1.6-0.4,3.7,1.2,5.2-0.2c1.4,0.1,1.4,1.4,2.1,1.9c1.2,0,0.5-1.6,1.8-1.8c0,1.8,0,3.5,0,5.2
		c-8.4,0-16.8,0-25.1,0c-0.9-0.1-0.5,1-1.2,1.4c-1.1,0-0.5-1.3-1.4-1.7C311.8,351.9,310.6,352.9,308.9,352.9z"/>
	<path class="st2" d="M183.4,349.5c7.1-3,14.6-1.4,22-1.7c0.3,1.6-0.3,2.3-1.6,2.3c-6.8,0-13.5,0-20.3,0
		C183.5,349.9,183.5,349.7,183.4,349.5z"/>
	<path class="st3" d="M290.8,344.7c-1.1,0.1-1.2-0.9-1.8-1.1c-0.8,0.3-1.2,1.2-2.2,1.3c-0.9-0.7-1.2-1.6-1.5-2.5
		c0.3-1.4,0.8-2.6,1.8-3.2c1.6,0.3,0.9,1.8,2,2.3c0.6-0.6-0.1-2.1,1.7-2.4C292.3,340.9,292,342.7,290.8,344.7z"/>
	<path class="st4" d="M298,340.2c1.6-0.7,2.4-0.2,2.9,1c0.7-0.4,0.8-1.4,1.8-1.3c1.7,0.3,2,3.1,0.6,5.1c-0.5,0.2-0.9-0.2-1.2-0.5
		c-0.3-0.3-0.6-0.7-0.9-1c-1,0.2-0.8,1.8-2.4,1.5C297.5,343.7,297.8,342,298,340.2z"/>
	<path class="st5" d="M275.9,181.1c1.7,1.1,2-1.1,3.3-1.3c0.9,1.1,0.2,2.1,0.2,3.3c-1.3,0-2.1,1-3.3,1.4
		C275.3,183.4,275.5,182.4,275.9,181.1z"/>
	<path class="st6" d="M285.2,268.9c0.9,2.6-0.1,4.9-1,7.3C283.3,273.6,283.5,271.1,285.2,268.9z"/>
	<path class="st7" d="M182.6,349.7c-2.2,0.8-4.2,1.3-6.5,0.4C178.5,348.2,181,348,182.6,349.7z"/>
	<path class="st8" d="M363.1,199.6c1.1,1.2,0.4,2.5,0.9,3.6c0.5,0.7,1.1-0.6,2.1,0.7c0.1,0.1-0.3,0.9-0.2,1.7
		c-0.9,0.7-1.8,0.7-2.8,0.3C363.1,203.9,363.1,201.9,363.1,199.6z"/>
	<path class="st9" d="M300.7,332c1,2.5,0.6,4-0.1,5.5C300,335.9,299.9,334.3,300.7,332z"/>
	<path class="st10" d="M365.7,214.1c-1.8-1.8-1.8-1.8-0.3-3.3C366.4,211.9,365.8,213,365.7,214.1z"/>
	<path class="st11" d="M362.8,210.2c0.6,1.1,1.6,2.1,0.1,3.5C362.1,212.5,362.4,211.4,362.8,210.2z"/>
	<path class="st12" d="M265.6,334.5c-0.9-1.1-0.2-1.7,0.3-2.6C267,333.1,266.8,333.8,265.6,334.5z"/>
	<path class="st13" d="M298.3,338c-0.7-1.3-0.6-2,0.4-2.7C299.8,336.2,299.2,336.9,298.3,338z"/>
	<path class="st14" d="M340.8,340.2c-1-0.5-1.5-1-1.4-2C341,338.2,341.3,338.9,340.8,340.2z"/>
	<path class="st0" d="M357.3,277.5c-0.3-0.8-1.3-0.9-1.1-2.1c0.9-4.6-0.3-9.4,1-14c0.3-0.9-0.4-1.4-1.1-1.1c-8,0-16,0-24.4,0
		c-0.2-0.2,0.6-1.3-0.4-1.8c-1.1,1.3,0.4,2.6-0.2,3.9c-0.4,0.6-1-0.4-1.7,0.3c0.3,7.5-0.3,15.2,0.6,23c0.4,3.7,0.1,7.4-0.9,10.9
		c-0.5,1.6-1.2,3.4-3.3,3.4c-2.1,0-2.6-1.9-3.2-3.5c-1.5-4.1-1.7-8.6-1.4-12.6c0.7-7.7-0.3-15.2-0.9-23c-0.7,1.6,0.1,3.5-1.6,5
		c0-1.5,0-2.6,0-3.7c-0.2-11.5,0.1-23.1-0.2-34.6c-0.3-10.5-0.8-21-0.1-31.5c0.2-3.6,1.9-5.2,5.5-5.3c1.5,0.9,2,2.4,2.1,4.1
		c0.3,5.1,0.3,10.2,0.2,15.3c-0.1,2.3-0.2,4.6,0.4,6.9c2,0.2,0.9-2.2,2.6-2.3c0.7,0.9,0.8,2.3,1.8,3.1c0.5,0.6,0.5,1.7,1.6,1.7
		c0,0,0,0,0,0c0,0,0,0,0,0c0.9-0.9,0.3-1.9,0.4-2.9c2.2-0.2,4.4-0.7,6.6-0.3c0.8,0.9-0.3,2.3,1.1,2.8c0.9-0.7-0.1-2.1,1.1-3
		c4,0,8.3-1.6,12.6,0.4c0-0.9,0-1.9,0-3c-0.4-9.6-0.6-19.3-1.1-28.9c-0.3-4.8-1-9.6-3.4-13.9c-0.9-1.6-1.9-3.3-4-3.5
		c-0.7,2.4-0.2,4.2,2,5.2c0,1.3,0.2,2.5-0.4,4.1c-1.5-3-2.8-5.5-4.1-8.1c-0.2-1.4,1-2.7,0.1-4.1c-0.8-0.2-1.3,0.8-2.4,0.3
		c-1.3-2.9-4.2,0.3-6.2-1.3c-0.7,0.4-1.4,0.9-2.1,1.3c-2.1-0.7-4.1-1.5-6.1-0.9c-5.1,1.6-9.8,1.1-14.5-1.2c-0.8,0.6-0.1,1.8-1.3,2.3
		c-1.9,0-4,0.2-6,0c-3.1-0.3-5.5,0.8-7.8,2.6c-5.5,4.3-7.2,10.2-7.2,16.8c-0.1,17.1,0,34.2,0,51.3c0,9.7,0,19.3,0,29
		c0,0.8-0.2,1.9,0.2,2.5c2.4,3.2,2.9,7,3.4,11c2.6-4.1,3.2-4.2,8.5-2.5c-0.8,2-1.6,4-2.4,6.2c-1.1-1.1-0.5-3.2-2.6-3.4
		c-1.2,2.2-0.3,4.8-1.1,7.3c-1.4-1.9-0.6-3.8-0.6-5.8c-2,0.9-2,2.3-2.1,3.9c-0.1,4.6,0.8,9.3,0.4,13.9c-0.5,6.5,0.7,12.6,2,18.8
		c1.8,8.7,6.8,10.6,14.5,11.8c1.2,0.2,2.5-1.8,3.5,0.2c2.8-1.2,5.5-1.4,8.1-0.2c0.6-0.4,1.2-0.7,1.7-1c1.5,0.6,2.9,1.3,3.9,0.2
		c6,1.4,11.7,1.1,17.4,0.5c4.1-0.5,6.7-3,8.7-6.4c2.4-4,3.5-8.4,3.6-13c0.2-9.4-1-18.7-0.7-28.1
		C356.3,279.4,356.8,278.4,357.3,277.5z M352.5,196.6c0.5,3.8-0.2,6.9-1.9,9.1C350.3,204.4,351.4,198.6,352.5,196.6z M347.1,200.7
		c0,1.3-0.4,1.9-1.5,2.2C345.1,201.5,345.1,200.6,347.1,200.7z M340.5,185.3c-0.4,2.9-1.1,5.4-2.1,7.9
		C337.4,191.3,338.4,187.4,340.5,185.3z M332.5,215.9c0-0.1-0.1-0.3-0.1-0.4C332.5,215.6,332.5,215.8,332.5,215.9z M304.5,172.4
		c-1.7-1.8-0.3-3.3,0.2-4.8C305.5,169.2,305.7,170.7,304.5,172.4z M313,270.8c0-9,0-17.9,0-26.9c0.3,0,0.6,0.1,0.8,0.1
		C313.8,253,314.1,261.9,313,270.8z M339.3,273.5c0.1,0,0.2,0,0.3,0c0,1.5,0,3,0,4.6c-0.1,0-0.2,0.1-0.3,0.1
		C339.3,276.6,339.3,275.1,339.3,273.5z M333.8,285.7c-1-1.5-1.5-3.1-1.4-4.9c1-0.9,1.7,0.4,3-0.1
		C334.4,282.5,335.9,284.4,333.8,285.7z M336.2,275.5c-1.1,0-0.7,1.8-2.1,1.5c-0.9-1.4-0.4-2.7,0.7-4c0.9,0.3,1.9,0.6,3,0.9
		c0.4,1,0.7,1.7,0.2,2.6C337,276.9,336.6,276.2,336.2,275.5z M341.7,298.3c-2.8-1.8-1.8-4.1-1.7-6.1c0.1-2,0.7-4.1,1-6.1
		c-0.9-0.9-1.9,0.6-2.8-0.3c-1.6-2,0.3-3,1.3-4.5c1.1,0.7,0.2,1.4,0.6,2.1c0.5,0.1,1,0.3,1.6,0.5
		C342.2,288.7,340.2,293.2,341.7,298.3z"/>
	<path class="st0" d="M280.2,307.6c-0.2-1.5,1.4-0.9,1.7-2c-1.2-8.5-2.4-17.2-3.5-25.9c-0.2-1.3-1.1-1.2-1.8-1.7
		c0.1-0.8,0.2-1.6,0.3-2.4c0.9,0,0.6,1.3,1.3,1.2c0.6-5.2,2.2-10.3,1.5-15.6c0,0,0,0,0,0c0,0,0,0,0,0c0.8-4.4,0.1-8.8,0.7-13.4
		c1.5-1.9,2.6-4.1,2.6-6.7c-0.8-0.8-1.9,0.2-2.5-0.9c0-0.9,0-1.9,0-3.1c1.5-0.7,1.6-2,1.4-3.5c0,0,0,0,0,0c0,0,0,0,0,0
		c-0.1-0.9,0.2-1.9-0.5-2.7c-3.6-0.5-7.4,0-11.4-0.9c-2.4-21.7-6.1-43.2-7.5-64.9c-8,0-15.6,0-23.3,0c0.2,1.5,1.5,0.5,1.9,1.5
		c0.2,2.5,1.5,5.1,0.6,8c-2.8-0.8-1.8-3.3-2.9-4.8c-1-0.1-2-0.1-3.1-0.2c-0.7-1.7-1.1-3.5-2.8-4.8c-2.5,0-5.1,0-7.7,0
		c-0.3,3.7-0.6,7.2-0.8,10.6c-1.3,20.9-2.5,41.9-3.7,62.8c-0.1,1.4,0.2,3-0.4,4.2c-1.6,3.1-2,6.5-2.4,9.8c-3,24.5-4.3,49.1-6.9,73.6
		c-0.1,1-0.5,2,0.3,3c1.3,0,2.5-0.1,3.7-0.8c-0.3-0.5-0.6-0.9-1.1-1.7c1.1,0.9,1.8,1.5,2.4,2c6.8,0.1,13.5-0.2,20.5,0.5
		c1.6-6.3,1.2-13,2.5-19.1c-0.7-5.1,0.2-9.7,1.7-14.2c4,0.5,7.7-0.7,12,0.2c4,10.2,3.5,21.5,5,32.4c4.8-1.9,9.2,0.8,13.7-0.1
		c4.4-0.8,8.8-2.4,13.9-0.8C284.7,320.1,286.6,312.8,280.2,307.6z M279.1,236.7c-0.2,1.9,0.1,3.7-1.9,4.6c-1.1-1.2-2.7-0.6-4-0.8
		c-0.9-0.4-0.9-1.3-1.3-1.8c0-0.7,0-1.4-0.1-2.1C274.1,236.6,276.6,236.2,279.1,236.7z M261.6,255.1c-1.1,0.7-2.1,1.4-3.4,2.2
		c-0.7,2.3-1.4,4.7,0.1,7.8c-0.5,0.3-1,0.6-1.5,0.9c0.7,1.3,0.8,2.6,0.4,4.3c-1.1-1.3-2.3-1.9-4-2.6c2.2-3.5,4.4-6.9,2-11.2
		c2.4-0.6,4.3-1.1,6.2-1.6C261.5,254.9,261.5,255,261.6,255.1z M227.6,265.4c-0.8-1.9,0.3-3.8-0.3-5.9c-1-0.1-1.9-0.1-3-0.2
		c1-2.5,2.9-2.4,5.1-2c-0.1,2-0.3,3.9-0.4,5.3c0.2,1.6,1.7,1,1.9,2.2C230.3,266.8,228.8,265.5,227.6,265.4z M252.9,272.2
		c-4.2,0.9-8.1-0.3-12.1-1.9c-0.2-2.4-0.6-4.7,1.2-6.7c0.4-0.4,0.6-1,0.6-1.6c0-5.6,0-11.3,0-17.4c-4.5,0-8.8,0-13.1,0
		c0.2-1.9,0.2-1.9,4.9-2.8c2.1-0.4,4.2-0.7,7-1.2c0-7.9,0-15.8,0-24.8c0.7-2.1,1.7-5,2.7-7.9c0.3,0,0.6,0.1,0.9,0.1
		c0.1,8.9,3.3,17.6,1.1,26.9c0.2,0.5,1.1,0.2,1.7,0.9c0.7,3.1-0.8,6.1-1.3,9.3c2.8,1.3,6.3-1,9.4,1.5c-2.6,1.3-4.9,0.2-7.2,1
		c1.7,3.6-0.2,8.1,3,10.5c0.2,1.8-1.1,1.4-1.7,2.6c4.8,13.2,13.1,25,20.6,37.1C263.8,290.1,257.1,282.1,252.9,272.2z M275.3,272.3
		c-0.9-1.3-0.8-2.7,0.1-4.9C276,269.6,275.8,270.9,275.3,272.3z M275.2,258.5c-0.1-3.1-0.7-6.1-1.3-9.1c-1.1-0.7-2.2-1.5-3.3-2.2
		c1.8-2,3.9,0,6-0.8c0.3,5.3-0.2,10.1-0.6,15C275.8,260.5,275.5,259.5,275.2,258.5z"/>
	<path class="st15" d="M201.1,191.6c-0.6-2.2-0.1-3.8,1.6-5.1C204,188.8,203.5,190.6,201.1,191.6z"/>
	<path class="st0" d="M207.7,210.6c-0.5-6.9,0.1-13.8,0-20.7c0-2.1,0-4.2-1.1-5.9c1.2-4.9-2.2-13.6-6.5-16.7c-0.5-0.4-1.1-0.8-1.7-1
		c-5-1.4-10-2.7-15.3-2.3c-1.1,0.1-2.1,0.8-3.3,0.4c-4.6-1.4-9.4-0.6-13.9-0.2c-5.6,0.4-11.2,0.5-16.7,0.7c-1.9,0.1-3.7-0.5-5.5,0.1
		c-1.5,18.8-0.5,37.5-1.2,56.2c1.2,0.1,1.1-0.7,1.1-1.4c0-2,0-4.1,0-6c1.4-0.8,2.5-0.7,3.9-0.3c-2.1,3.8-3.4,7.9-5,11.9c0,0,0,0,0,0
		c-0.2,3.2-0.1,6.4-0.1,9.5c0.1,9.6,0,19.2,0,28.9c0,17.1,0,34.2-0.1,51.3c0,5.3,0,10.7,0,15.8c1.7,0.5,2.6,0.2,3.6,0.2
		c4-0.3,8-1.9,12.1-0.7c4.2,1.2,8-0.4,12.4-1.2c-1.2-18.1-1.9-36.1-0.4-54.1c5.3,1.5,7.5,0.1,7.7-4.7c-2.6-2.6-3.2-6-2.6-9.7
		c0.2-0.6,1.3-0.3,1.3-1.2c-1.2-0.4-1.5-1.3-1-2.5c0.6,0.1,0.2,1.2,1.4,0.9c1.1-3.2,2.3-6.5,3.6-10.2c-2,0.6-2.4,2.1-3.8,2.8
		c-1.4,0.1-3,0.4-4.6-0.2c-1.4-1.8-1.6-4-1.8-6.2c-1.1-10.3,0.1-20.7,0.2-31c0-3.8-0.1-7.5-0.3-11.3c-0.2-3.8,0-7.7,0-11.4
		c7.4-1.3,10.8,1.4,10.9,8.4c0,0.9,0,1.7,0,2.6c-0.6,13-0.4,26.1-0.3,39.1c0,1-0.4,2.1,0.6,3c0.9-0.3,1.4-1.1,1.9-1.9
		c-0.1-1.6-0.3-3.2-0.4-4.7c0.2,0,0.4,0,0.5-0.1c0.4,0.7,0.8,1.4,1.1,2c1.3-0.3,2.4-0.4,3.7-0.1c0.6,1.7,1.8,3.2,3.6,3
		c1.6-0.2,2.9,0.4,4.3,0.7c4,0.9,8.1,1.8,12,0.1c0.7-5.8,0.1-11.4,0.4-17C208.6,220.4,208.1,215.5,207.7,210.6z M154.5,276.4
		c0.4,1,0.5,1.9-0.4,3c-1-0.4-1.6-1.1-1.7-2.3C153,276.2,153.6,276.1,154.5,276.4z M152.1,280.1c1.4,1.8,1.6,3.1,0.2,4.9
		C151.1,283.2,152,282,152.1,280.1z M154.7,293.9c-2.5-2.6-2.6-3.3-0.9-5.1C154.9,290.3,154.9,291.9,154.7,293.9z M156.1,301.3
		c-0.5-1.4,0.2-2.6,0.8-4.1c1.1,1.1,1.2,2.3,1.3,3.5C157.4,301.4,156.8,301.4,156.1,301.3z M175.2,180.1c0-1.1,0.6-1.4,1.8-1.4
		C177.2,180.5,176.4,180.5,175.2,180.1z"/>
	<path class="st0" d="M31.9,206.9c0.1-0.6-0.1-1.1-0.2-1.7c-1.1-7.6,0.4-15.2-1.2-22.8c-0.3-1.5,0.2-3.6,0.2-5.3
		c-0.2-4.6,0.8-9.8-3.6-13.1c-8.3-0.6-16.3,0.2-24.3,1.1c-1.9,26,2.4,52.1,2.1,78.2c-1.8,1-3.3,1.8-4.9,2.7c0.4,0.8,1.5,0.4,1.5,1.3
		c0.8,28.3,1.6,56.5,2.5,85.5c3.8-2.5,1.7-6.2,3.4-9c0.4,2.6,0.7,4.9,1,7.1c2.6,0.6,5.2-0.4,7.7,1.2c4.2-4.1,10.2-1.5,14.9-4
		c0.7-15.5,0.8-30.7-1.9-45.8c0.7-1.7,2.1-2.9,2.1-4.8c0.3-11.7,0.1-23.4-1.1-35.2c0.5-0.6,1.4,0.5,2.1-0.5c0.5-1.1,0.4-2.5,0.4-3.9
		C32.7,227.7,31,217.3,31.9,206.9z M12.6,199.3c-1,0.6-1.9,0.5-3.2,0.1c0.5-1.9,0.7-3.8,2.6-5.1C13.1,196.1,12.7,197.7,12.6,199.3z
		 M17.4,283c-0.3-1.3,0.3-1.7,1.3-1.7c1.3,0,2.7-0.2,3.3,1.7C20.3,283,18.8,283,17.4,283z"/>
	<g>
		<path class="st16" d="M595.8,192.6c-10.9,0-21.8,0-32.6,0c-0.8,0-1.9-0.6-2.8,1.3c4.8,0.9,9.5-0.1,14,0.6c0.3,1.1,0.6,2-0.3,3.1
			c-4.4,0-8.9,0-13.3,0c0,2.6,0,4.9,0,7.6c11.7,0,23.2,0,34.6,0c0.4,1.2,0.6,2.1-0.4,3.3c-11.1,0-22.5,0-34.2,0c0,2.6,0,4.5,0,6.5
			c15.3,0,30.5,0,45.7,0c0-2.3,0-4.4,0-6.8c-2.8,0.2-5.5,0.3-8.4,0.5c0.2-1.4-0.2-2.4,0.5-3.6c2.6,0,5.3,0,7.9,0c0-4.3,0-8.3,0-12.3
			c-1.9-0.3-3.7,0.3-5.4-0.4c-0.1-0.6-0.3-1.2,0.2-1.6c1.7-0.5,3.6,0.3,5.3-0.4c0-2.4,0-4.8,0-7.4c-9.3,0-18.4,0-27.5,0
			c-0.2-1.3-0.3-2.3,0.2-3.6c9,0,18.1,0,27.3,0c0-2.2,0-4,0-5.7c-1-0.7-2.1,0.1-2.8-0.8c-0.1-1-0.3-2,0.2-3c0.9-0.3,1.8-0.6,2.7-0.9
			c0-0.6,0-1.2,0-2c-3.1,0-6.2,0-9.4,0c0.3-1.2-0.3-2.2,0.7-3.2c2.6,0,5.5,0,8.4,0c-1.7-0.8-3.4-1-5.1-1.2c-3.5-0.4-3.5-0.3-3.7-2.4
			c3,0,6,0,9.1,0c0.2-2.3,0.3-4.3-0.1-6.6c-5,0-9.7,0-14.6,0c0.1-1.1-0.3-2,0.8-3.1c4.4,0,9.2,0,14,0c0-2.7,0-5,0-7.4
			c-1.8-1.4-1.8-2.1-0.1-3.9c0-2.3,0-4.4,0-6.4c-1-0.7-2.1,0.1-2.9-0.9c0.2-0.7-0.3-1.6,0.3-2.3c0.9-0.6,2.6,0.6,2.8-1.5
			c-15.4,0-30.7,0-46,0c0,0.3,0,0.6,0,1c10.2,0,20.5,0,30.9,0c0.1,1.4,0.4,2.3-0.2,3.4c-0.6,0-1.2,0-1.9,0c-8.8,0-17.6,0-26.4,0
			c-0.9,0-2.5-0.7-2.3,1.7c4.6,0,9.1,0,13.7,0c0.3,1.5,0.5,2.5-0.3,4c-4.4,0-8.9,0-13.4,0c0,0.5,0,0.9,0,1.4
			c7.4,0.2,14.9,0,22.2,0.1c0.3,1.2,0.4,2-0.1,3c-7.3,0-14.6,0-21.9,0c0,9.4,0,18.5,0,27.6c2.9,0.5,5.7-0.3,8.5,0.5
			c-0.3,0.9,0.3,1.8-0.5,2.7c-2.7,0.3-5.5-0.3-8.2,0.3c-0.1,0.9-0.1,1.5,0.6,1.7c0.5,0.1,1.1-0.4,1.5,0.3c0,0.7,0,1.5,0,2.1
			c-0.6,0.9-1.8-0.6-2.4,1.5c5.5,0.5,10.9,0,16.3,0.3c0,1.3,0,2.3,0,3.6c-5.4,0-10.6,0-16,0c-0.1,2.7-0.3,5.1,0.2,7.7
			c12.5,0,24.9,0,37.3,0C598.7,193.2,596.9,192.6,595.8,192.6z M591.6,212.5c-1.8,0.3-3.4,0.3-4.9,0.1c-0.5-0.7-0.3-1.3-0.2-1.8
			c1.7-0.6,3.4-0.1,4.9-0.2C592,211.3,591.8,211.8,591.6,212.5z M601,139.3c0.8-0.1,1.4-0.2,1.9,0.2c0.5,0.8,0.3,1.7,0.2,2.6
			c-0.7,0.4-1.4,0.5-2.1,0.1C601,141.3,601,140.4,601,139.3z M595,139.7c1.2-0.8,2.4-0.2,3.5-0.4c0.5,1.1,0.5,1.9,0.2,2.9
			c-1.3,0-2.5,0-3.7,0C595,141.3,595,140.5,595,139.7z M588.4,139.5c1.7,0,3.2,0,5,0c0.3,1,0.3,1.8,0,2.7c-1.6,0.4-3.1,0.2-4.7,0.1
			C588.1,141.4,588.4,140.5,588.4,139.5z M572.8,144.3c6.1,0,12.3,0,18.5,0c0.7,0.9,0.3,1.8,0.3,2.9c-6.4,0-12.6,0-18.9,0
			C572.5,146.2,572.4,145.3,572.8,144.3z M589.4,161.8c-3.6,0.3-7.3,0.7-11.1,1.1c-0.4-1.2-0.5-2,0-2.9c3.7,0,7.4,0,11,0
			C589.8,160.5,589.6,161,589.4,161.8z M565.6,177.4c-0.5-0.7-0.1-1.5-0.2-2.2c2.1-0.7,4.1-0.2,6-0.3c1.2,0.7,0.5,1.6,0.8,2.6
			C569.8,177.4,567.7,177.4,565.6,177.4z M569.6,153c-0.5-0.9-0.3-1.8-0.1-2.6c0.9-0.5,1.8-0.2,2.5-0.2c0.8,0.9,0.4,1.8,0.4,2.7
			C571.4,153.4,570.5,153.4,569.6,153z M572.7,173.1c-0.4-1-0.4-1.9,0-2.9c6.3,0,12.6,0,18.8,0c0.4,1,0.4,1.9,0,2.9
			C585.3,173.1,579,173.1,572.7,173.1z"/>
		<path class="st16" d="M606.4,225.1c-2.2-0.5-4.5,0.3-6.9-0.5c0.2-1.1-0.3-2.1,0.5-3.2c2.1-0.4,4.4,0.3,6.7-0.4
			c0-0.7,0.3-1.4-0.4-1.8c-15.1,0-30.2,0-45.4,0c0,5.6,0,11,0,16.8c4.7,0,9.2,0,13.6,0c0.3,1.3,0.4,2.3-0.2,3.5
			c-3.7-0.2-7.5-0.4-11.2-0.5c-0.9,0-2.5-0.6-2.3,1.8c7.4,0,14.8,0,22.5,0c-0.4,1.3,0.3,2.2-0.9,3.2c-7,0-14.2,0-21.6,0
			c0,5.7,0,11.3,0,16.9c15.3,0,30.4,0,45.7,0c0-2.3,0-4.4,0-6.6c-0.9-0.1-1.8-0.2-2.8-0.3c-0.2-1.2-0.4-2.3,0-3.4
			c0.9-0.4,2,0.1,2.7-0.6c0-1.8,0-3.6,0-5.5c-6.1,0-12.1,0-18.1,0c0-1.1,0-2.1,0-3.3c6.1,0,12.1,0,18.2,0c-0.1-1,0.2-1.6-0.7-2.4
			c-6.3,0-12.9,0-19.5,0c-0.1-1.1-0.4-2,0.4-3c6.4,0,12.9,0,19.5,0c0.5-1.8,0.5-3.1-1-3.6c-0.5-1.6-0.1-2.8,1.3-3.3
			C606.5,227.5,607.1,226.2,606.4,225.1z M574.6,222.7c-4,0.2-8.1,0.4-12,0.5c-0.6-1.1-0.5-1.9-0.2-2.9c3.9,0,7.9,0,12.1,0
			C575,220.9,574.8,221.7,574.6,222.7z M569.3,248.8c-0.6,0.5-1.3,0.5-2,0.1c-0.5-0.9-0.1-1.9-0.3-2.9c1-0.6,1.5-0.6,2.2,0
			C569.3,246.9,569.3,247.9,569.3,248.8z M593.5,254c-1.5,0.7-3.1,0.2-4.9,0.3c0-1.3,0-2.3,0-3.4c1.7-0.4,3.2-0.2,4.8-0.1
			C593.9,251.9,593.7,252.9,593.5,254z M591.4,245.7c0.4,1.2,0.4,2.2,0.1,3.3c-6.2,0-12.4,0-18.7,0c-0.6-1-0.3-2.1-0.2-3.3
			C578.9,245.7,585.1,245.7,591.4,245.7z M595.9,221.5c0.9-0.4,1.5-0.4,2.1,0.1c0.3,1,0.2,2,0,3c-0.6,0.5-1.2,0.5-1.9,0.3
			C595.6,223.8,595.9,222.7,595.9,221.5z M593.5,232.9c-1.5,0.5-3,0.2-4.5,0.2c-0.4-1.2-0.5-2.3,0.1-3.4c1.6,0,2.9,0,4.2,0
			C593.9,230.9,593.7,231.9,593.5,232.9z M594.3,224.6c-0.7,0.6-1.3,0.5-1.9-0.1c0-0.9,0-1.9,0-2.7c0.6-0.6,1.2-0.6,1.9-0.2
			C594.3,222.5,594.3,223.5,594.3,224.6z M598.7,232.9c-1,0.5-2,0.3-3.1,0c-0.3-1.1-0.3-2.1,0-3.2c1.2,0,2.1,0,3,0
			C599.1,230.9,598.9,231.9,598.7,232.9z M603.3,233c-2.9-0.1-1.6-2.1-2-3.1c0.9-0.5,1.4-0.4,1.9-0.1
			C603.7,230.7,603.5,231.7,603.3,233z"/>
		<path class="st16" d="M563,55.7c0,0.5-0.1,1.3-0.1,2.1c-0.8,0.7-2.8-0.1-1.9,2.3c5.2,0,10.5,0,15.8,0c0,1.3,0,2.3,0,3.8
			c-5.4,0-10.7,0-15.9,0c0,3.5,0,6.5,0,9.8c4.7,0,9.1,0,13.7,0c0,1.1,0.4,2-0.6,3.3c-4.2,0-8.7,0-13.2,0c0,0.3,0,0.7,0,1
			c7.4,0,14.7,0,22.1,0c0.3,1.8,0.6,3-0.3,4.3c-7.2,0-14.5,0-21.8,0c0,0.2,0,0.4,0,0.6c15.2,0,30.4,0,45.7,0c0-0.2,0-0.5,0-0.7
			c-6,0-12,0-18,0c-0.2-1.6-0.4-2.9,0.1-4.2c6.1,0,12,0,18,0c-0.2-2.3-2.1-0.8-2.9-1.7c-0.2-0.9-0.4-1.8,0.1-2.5
			c1-0.6,2.7,0.6,2.8-1.4c-0.8-1-2.2,0-2.9-0.9c-0.1-0.9-0.4-1.8,0.3-2.7c0.8-0.1,1.7-0.2,2.5-0.3c0.2-1.1,0.4-2.1-0.4-3.4
			c-2.9,0-5.9,0-8.9,0c2.9-2.3,6.7,0.1,10.2-2.5c-3.7-1.2-7-0.5-10.1-1.2c-0.1-1.1-0.4-2,0.7-3.1c2.7,0,5.7,0,8.6,0
			c0-2.5,0-4.6,0-6.2c-0.5-1.3-1.6-0.9-2.2-2.3c0-13.1,0-26.7,0-40.3c-1.8,0-3.2,0-5,0c0,14,0,27.8,0,41.8c-2.6-0.1-4.9-0.6-7.2-0.3
			c-0.7,0.6-0.1,1.7-1.1,2c-6,0-12.1,0-18.4,0c0-2.2-1.6-1.8-2.8-2c-1,0.4-0.2,1.6-1.5,2.1c-2.3,0.3-5-0.4-7.5,0.3
			C559.9,55.8,562.6,54.3,563,55.7z M591.5,76.1c-1.7,0.7-3.3,0.5-5.8,0.4C588.2,75.3,589.9,75.9,591.5,76.1z M565.7,54.7
			c2-0.2,4-0.2,6.2,0.1c0,1.2,0,2.2,0,3.4c-2.1,0-4.2,0-6.4,0C565.3,57,565.2,55.9,565.7,54.7z"/>
		<path class="st16" d="M560.9,93c0,5.2,0,10.3,0,15.3c0.9,0.2,1.6,0.3,2.3,0.4c0.3,1,0.4,1.9,0,2.6c-0.8,0.6-1.9-0.1-2.3,0.7
			c0,2.3,0,4.5,0,6.9c6,0,11.8,0,17.6,0c0.3,1.2,0.5,2-0.1,3.1c-5.8,0-11.6,0-17.5,0c-0.1,0.8-0.4,1.4,0.2,2c15.2,0,30.4,0,45.5,0
			c0-2.3,0-4.5,0-6.9c-3.1,0-6.1,0-9.1,0c-0.3-1.2-0.5-2.1,0.4-3.2c2.8,0,5.8,0,8.7,0c0-2.4,0-4.6,0-7.1c-14.8,0-29.5,0-44.2,0
			c-0.2-1.4-0.4-2.4,0.3-3.6c14.5,0,29.1,0,43.8,0c1-3.7-2-6.9,0.6-10.2C591.3,93,576.1,93,560.9,93z M568.6,116.9
			c-0.6,0.3-1.1,0.3-1.6,0c-0.5-0.9-0.3-1.9-0.1-2.8c0.6-0.4,1.1-0.2,1.6,0C569,115,568.8,115.9,568.6,116.9z M594.2,117
			c-7.5,0-15,0-22.7,0c-0.5-1-0.3-1.8-0.2-2.8c7.6,0,15.2,0,22.8,0C594.5,115,594.6,115.9,594.2,117z M586.5,108.7
			c1.7-0.5,3.4-0.2,5-0.2c0.4,1.2,0.4,2,0,3c-1.6,0-3.2,0-4.9,0C586.1,110.6,586.3,109.7,586.5,108.7z M565.8,108.6
			c4.4,0,8.7,0,13.1,0c0.5,1.1,0.4,1.9,0.2,2.8c-4.4,0-8.6,0-13,0C565.5,110.6,565.9,109.7,565.8,108.6z M574.5,96.7
			c-4.1,0-8.1,0-11.8,0c-0.8-1-0.6-1.8-0.2-2.7c4,0,7.9,0,12,0C574.9,95,574.9,95.9,574.5,96.7z M589.5,98.6c-1.5,0-3,0-4.5,0
			c-0.6-1-0.3-2.1-0.2-3.3c1.5,0,3,0,4.7,0C589.5,96.4,589.5,97.4,589.5,98.6z M594.7,98.5c-1.1,0.4-2.1,0.4-3.1,0
			c-0.4-1-0.2-2-0.1-3c1-0.6,2-0.4,3.2-0.2C594.7,96.5,594.7,97.5,594.7,98.5z M599.4,98.3c-0.7,0.8-1.4,0.4-2,0.3
			c-0.4-1.1-0.2-2.1-0.1-3.1c0.8-0.6,1.5-0.7,2.2,0C599.4,96.5,599.4,97.4,599.4,98.3z M603.5,98.3c-1,0.6-1.7,0.5-1.7-0.5
			c0-1-0.7-2.4,1.2-2.9C603.8,96.3,603.4,97.3,603.5,98.3z"/>
		<path class="st16" d="M565.3,276.7c-0.2,0.9,0.3,2-0.2,3c-1.4,0.4-2.9-0.3-4.2,0.6c0,3.8,0,7.5,0,11.6c4.8,0,9.4,0,14,0
			c0.2,1.4,0.3,2.4,0,3.5c-0.7,0.1-1.5,0.2-2.2,0.2c0.3,0.5,0.7,1.1,1,1.6c-1.3,1.8-4.2-1-4.9,2c0,0,0,0,0,0c0.8-1.2,2-0.8,3.1-0.8
			c9.9,0,19.7,0,29.6,0c1.7,0,3.4,0.3,5.1-0.3c0.1-0.8,0.4-1.6-0.2-2.4c-0.8,0-1.6,0-2.5,0c-0.1,0.6-0.2,1.3-0.3,2
			c-8.8,0-17.5,0-26.4,0c-0.6-0.6,0.1-1.3-0.1-2l0,0c-2-0.8-0.6-2.3-1.2-3.8c10.4,0,20.5,0,30.7,0c-0.1-2.3,0.2-4.4-0.3-6.6
			c-10.1,0-20.1,0-30.1,0c-0.2-1.1-0.4-2,0.4-3.2c9.8,0,19.8,0,29.6,0c0.4-0.9,0.5-1.5-0.3-2.3c-6.4,0-13,0-19.7,0
			c0-1.1-0.4-2,0.4-3.1c6.5,0,13.1,0,19.8,0c-0.1-0.9,0.4-1.5-0.3-2c-0.8-0.5-1.9,0.3-2.6-0.6c-0.1-0.8-0.3-1.7,0.1-2.3
			c0.9-0.9,2.2,0.2,2.9-1c0.1-1.1-0.6-1.2-1.5-1.2c-14.3,0-28.6,0-42.8,0c-0.9,0-1.8,0-1.5,1.7c2.7,0,5.5,0,8.1,0
			c0.5,1.3,0.6,2.2,0,3.4c-2.6,0-5.4,0-8.5,0C561.5,277.5,563.9,275.5,565.3,276.7z M591.4,271.6c0.5,0.9,0.4,1.8,0.1,2.9
			c-6.2,0-12.4,0-18.8,0c-0.1-0.9-0.1-1.7-0.2-2.9C578.9,271.6,585.2,271.6,591.4,271.6z M567.7,276.5c4.2,0,8.4,0,12.7,0
			c0,1.2,0,2.1,0,3.2c-4.3,0-8.4,0-12.7,0C567.4,278.7,567.6,277.7,567.7,276.5z"/>
		<path class="st16" d="M607.1,311.6c-15.7,0-30.9,0-46.5,0c0.3,2-0.3,4.1,0.4,6.3c7.3,0,14.6,0,21.9,0c0.2,1.1,0.5,2-0.4,3.2
			c-7.1,0-14.4,0-21.8,0c0,2.6,0,5,0,7.3c15.4,0,30.6,0,45.8,0c0-2.3-1.7-1.5-2.6-1.5c-11.6-0.1-23.2,0-35,0
			c-0.1-0.6-0.1-1.1-0.1-1.5c0-0.4,0-0.7,0.1-1.6c12.7,0,25.1,0,37.8,0c-0.4-1.1,0.3-2-0.8-2.8c-5.6,0-11.5,0-17.4,0
			c-0.2-1.1-0.5-1.9,0.2-3.2c5.8,0,11.8,0,17.8,0c0.1-2.7-2.2-1-2.9-2.1c-0.2-0.8-0.3-1.7,0.2-2.5
			C605.6,312.9,605.6,312.9,607.1,311.6z M591.8,315.9c-1.8,0-3.5,0-5.3,0c0-1.1,0-1.9,0-2.8c1.7-0.5,3.4-0.3,4.9-0.3
			C592,314,591.7,314.9,591.8,315.9z"/>
		<path class="st16" d="M570.3,297.2c1.1-0.1,2.1-0.3,2.3-1.6c-3.9,0-7.9,0-11.8,0c0,2.4,0,4.6,0,7c4.6,0,9.1,0,13.6,0
			c0.5,1.4,0.3,2.4,0.1,3.8c-4.6,0-9.1,0-13.6,0c0,0.2,0,0.5,0,0.7c15.2,0,30.4,0,45.7,0c0-1.9,0-3.7,0-5.8c-12.6,0-25,0-37.4,0
			c-0.1-0.9-0.3-1.5-0.4-2.2c0,0,0,0,0,0C567.7,297.4,569.3,297.4,570.3,297.2z"/>
		<path class="st16" d="M606.6,88.9c0.1-0.9,0.4-1.8-0.3-2.4c-15.1,0-30.2,0-45.2,0c-0.4,0.8-0.4,1.5-0.1,2.4
			C576.2,88.9,591.4,88.9,606.6,88.9z"/>
		<path class="st16" d="M562.1,266.5c14.3,0,28.6,0,42.9,0c0.8,0,1.8,0.2,1.7-1.3c-15.3,0-30.7,0-46,0
			C560.8,266.5,561.5,266.5,562.1,266.5z"/>
		<path class="st16" d="M577.1,297.4c1.6-0.6,3.2-0.4,4.8-0.4c5.8,0,11.7,0,17.5,0c1.6,0,3.2,0.1,4.4-1.3c-8.9,0-17.8,0-26.7,0v0
			C577.6,296.3,577.6,296.9,577.1,297.4z"/>
	</g>
	<path class="st16" d="M787.2,32.4c-3.5-0.1-6.6,0.2-9.3-0.5c-1.3,0.6-0.2,2-1.3,2.2c-1.7,0.1-0.5-1.9-1.5-2.1c-1.2,0-2.1,0-2.9,0
		c-0.7,0.6,0.1,1.7-0.7,2c-3.7,0-7.2,0-10.5,0c-0.7-0.6-0.1-1.5-0.9-2c-0.7-0.2-1.5-0.2-2.3,0c-0.9,0.5-0.2,1.6-1.1,2
		c-1.2,0-2.5,0-3.7,0c-0.8-0.5-0.1-1.6-1.1-2.1c-0.9,0-1.9,0-2.8,0c-1,0.4-0.1,1.8-1.4,2.1c-3.7,0-7.7,0-11.5,0
		c-1.1-0.4,0-1.8-1.7-2.2c-0.9,0.9-1.3,2.1-1.5,3.8c15,0,29.8,0,44.6,0c0.1,1.2-0.4,2-1.1,2.9c-1,0-2.2,0-3.3,0
		c-13.2,0-26.3,0-39.5,0c-1.2,0-2.8-0.4-2.9,2.1c15,0,30,0,44.9,0c0,1.3-0.4,2-1.5,2.6c-14.9,0-30,0-45.2,0c-2.2,5-4.4,9.9-6.5,14.7
		c0.6,1.1,1.8,0.2,2.3,1.2c0,0.8,0.4,1.6-0.3,2.4c-1,0.1-2,0.1-3.2,0.2c-0.8,1.8-1.6,3.6-2.5,5.5c0.8,0.3,1.4,0.5,1.9,0.6
		c0.2,0.9,0.3,1.8-0.2,2.6c-1.1,0.3-2.2,0.4-3.1-0.8c-0.3,0.9-0.9,1.6-0.5,2.8c14.7,0,29.6,0,44.4,0c0.3,1.1,0.1,1.9-0.9,2.5
		c-5.6,0-11.3,0-17.1,0c-8.6,0-17.2,0-25.8,0c-1.2,0-2.8-0.4-2.4,2.2c14.8,0,29.6,0,44.4,0c0,1.2-0.5,1.9-1.4,2.6
		c-14.8,0-29.8,0-44.9,0c-0.5,2.1-1.9,3.8-2.2,6.2c15,0,29.7,0,44.5,0c0.3,1.3-0.6,2-0.7,2.9c-0.7,1-1.7,0.6-2.6,0.6
		c-14.4,0-28.8,0-43.3,0c0,0.2,0,0.4-0.1,0.5c0,0,0,0,0,0c0,0,0,0,0,0c8.5,0,17,0,25.5,0c0.8,0,1.7-0.4,2.3,0.6
		c0,0.9,0.4,1.8-0.4,2.9c-9.5,0-19.1,0-28.7,0c-1.1,2.3-2.1,4.4-3.2,6.8c15.3,0,30.3,0,45.2,0c0,1-0.3,1.8-1,2.6
		c-15.1,0-30.3,0-45.6,0c-4,9.6-8,19-12.1,28.9c15.4,0,30.2,0,45.4,0c-0.8,1-0.8,2-1.8,2.5c-1,0-2.1,0-3.3,0c-13.1,0-26.3,0-39.4,0
		c-1.2,0-2.7-0.4-2.7,1.9c2.7,0,5.2,0,7.6,0c0.7,0.8,0.8,1.5,0.1,2.5c-2.9-0.1-6,0.4-9.2-0.4c-0.4,0.9-0.8,1.8-1.1,2.7
		c-0.1,0-0.3,0-0.4-0.1c0-30.6,0-61.2,0-91.8c-10.4,0-20.9,0-31.3,0c0,0.1,0,0.2,0,0.3c2.1,0,4.3,0,6.4,0c0.8,0.9,0.5,1.8,0.3,2.9
		c-2.5,0.5-5,0.2-7.4,0.2c-0.7-1.5-0.2-2.8-0.2-4c0-4.8,0-9.5,0-14.6c-1.9,0.2-3.3-0.3-5,0.6c0,4.7,0,9.6,0,14.6c-6,0-11.6,0-17.3,0
		c0,0.1,0,0.3,0,0.4c5.7,0,11.5,0,17.4,0c0,1.1,0.3,2-0.5,3c-5.1,0-10.3,0-15.5,0c-1,0-2.4-0.5-2.2,1.8c6.1,0,12.1,0,18.2,0
		c-0.1,1.1,0.2,1.8-0.6,2.7c-5.7,0-11.6,0-17.6,0c0,2.2,0,4.2,0,6.4c15.2,0,30.2,0,45.1,0c0.6,1,0.6,1.8-0.1,2.6c-1,0-2,0-3.1,0
		c-13.1,0-26.3,0-39.4,0c-1,0-2.6-0.7-2.5,1.8c3.7,0,7.3,0,10.8,0c0.4,1.2,0.4,2-0.1,3.1c-3.4,0-7,0-10.6,0c0,5.7,0,11.2,0,16.6
		c1.5,0.6,3-0.3,4.2,0.6c0.1,0.9,0.4,1.7,0,2.1c-1.5,1-3.5-0.5-4.6,1.9c9.4,0,18.4,0,27.3,0c0.3,1.1,0.4,1.9-0.1,2.9
		c-0.7,0-1.4,0.1-2.2,0.1c-7.5,0-14.9,0-22.4,0c-1.1,0-2.7-0.5-2.2,1.9c8.9,0,17.9,0,26.7,0c0.6,0.9,0.6,1.6,0.2,2.6
		c-8.9,0-17.8,0-26.9,0c0,3.1,0,6,0,9.1c2,0,3.9,0,5.8,0c0.1,1.1,0.4,2-0.2,2.9c-1.9,0.8-4.1-0.6-5.7,1.5c15.1,0,30.2,0,45.2,0
		c0.3,1.3,0.6,2.2-0.5,3.5c-14.7,0-29.8,0-44.8,0c0,0.3,0,0.6,0,1c5.6,0,11.1,0,16.6,0c0.3,1.3,0.5,2.1-0.1,3.1
		c-5.4,0-10.8,0-16.4,0c0,5.2,0,10.1,0,15.4c8.2,0,16.3,0,24.3,0c0.2,1.2,0.4,2-0.2,3c-4,0-8.2-0.1-12.3,0c-4,0.1-8-0.4-11.9,0.3
		c0,0.3,0,0.7,0,1c11,0,22,0,32.9,0c0.3,1.2,0.3,2,0,3.1c-10.8,0-21.6,0-32.5,0c-0.4,0.7-0.6,1.2-0.1,2c10.8,0,21.7,0,32.5,0
		c0.4,1,0.4,1.7-0.2,2.7c-10.8,0-21.7,0-32.5,0c0,2.2,0,4.2,0,6.3c15.2,0,30.2,0,45.3,0c0.2,1.1,0.5,2-0.5,3.3c-14.8,0-29.9,0-45,0
		c0,0.3,0,0.7,0,1c3.7,0,7.3,0,11.2,0c-0.2,1.4,0.3,2.3-0.7,3.5c-3.3,0-6.9,0-10.5,0c0,0.3,0,0.6,0,1c15.1,0,30.3,0,45.5,0
		c0,1.4,0,2.2,0,3.2c-15.2,0-30.3,0-45.3,0c-0.6,2,0.6,1.8,1.7,1.8c3.6,0,7.2,0,10.8,0c10.9,0,21.7,0,32.6,0
		c0.5,0.9,0.7,1.7-0.2,2.7c-14.8,0-29.8,0-44.9,0c0.9,5.2-1.1,10.2,0.2,15.5c5.5,0,10.9,0,16.3,0c0.3,1.1,0.4,1.9-0.2,2.9
		c-5.3,0-10.8,0-16.3,0c-0.3,2.1-0.4,3.9,0.1,5.8c1.4,0.1,2.7,0.2,3.9,0.3c0.3,1.1,0.5,2-0.1,2.8c-3.7,0.3-3.7,0.3-4,2.2
		c9.1,0,18.1,0,27.2,0c-0.1,1.1,0.2,1.9-0.8,2.5c-7.9,0-16.1,0-24.2,0c-1,0-2.5-0.6-2.2,1.7c8.9,0,17.9,0,26.9,0
		c0.3,1,0.6,1.8-0.3,2.8c-8.7,0-17.5,0-26.5,0c-0.3,2.2-0.3,4.2,0,6.5c15.2,0,30.2,0,45.2,0c0.2,1,0.4,1.8-0.2,3c-15,0-30,0-45.1,0
		c0,3.9,0,7.5,0,11.2c15.2,0,30.2,0,45.3,0c0,1,0,1.7,0,2.6c-15.2,0-30.2,0-45.4,0c0,8.4,0,16.5,0,24.9c2,0,3.9,0,5.7,0
		c0.3,1,0.6,1.8-0.1,2.4c-1.9,0.4-4-0.4-5.8,0.6c0,0.3,0.1,0.6,0.1,0.9c15.1,0,30.3,0,45.3,0c0.3,1.1,0.5,1.8-0.4,2.8
		c-14.8,0-29.8,0-44.6,0c0.4,5.2-1,10.2,0,15.3c5.6,0,11,0,16.4,0c0.3,1.1,0.4,1.9-0.3,2.9c-5.3,0-10.7,0-16.3,0
		c-0.1,2.3-0.5,4.3,0.3,6.5c3.5,0,7,0,10.4,0c0.3,0.9,0.5,1.6-0.4,2.6c-3.3,0-6.8,0-10.4,0c-0.2,2,1,1.7,2,1.7c4.1,0,8.3,0,12.4,0
		c0.1,1.1,0.5,1.8-0.5,2.6c-4.4,0-9,0-13.5,0c-0.6,0.8-0.6,1.3,0.2,2.1c3.9,0,7.9,0,11.8,0c0.5,0.9,0.5,1.6,0,2.6c-4,0-8.2,0-12.6,0
		c0.5,2.3-0.3,4.3,0.6,6.3c6.9,0,13.8,0,20.7,0c0.4,1.1,0.5,2-0.3,3.1c-6.8,0-13.7,0-20.7,0c0,3.9,0,7.4,0,11.3
		c15.2,0,30.3,0,45.4,0c0.1,1,0.3,1.8-0.4,2.5c-6.2,0-12.5,0-18.9,0c-7.9,0-15.9,0-23.8,0c-1,0-2.7-0.5-2.1,1.8c1.9,0,3.8,0,5.6,0
		c0.3,1,0.6,1.8-0.1,2.5c-5.3,0.3-5.3,0.3-5.3,1.8c18.3,0,36.6,0,54.9,0c0-20.6,0-40.9,0-61.2c0-1.3-0.1-2.6,0.5-3.9
		c1.8-4,3.5-8.1,5.3-12.3c14.4,0,28.7,0,43.2,0c0.1,1,1.2,1.5,0.9,2.9c-14.4,0-28.8,0-43.4,0c0.2,1,0.2,1.7,1.8,2.1
		c5.6,0,11.8,0,18,0c0.1,0.9,0.4,1.6-0.5,2.5c-5.5,0-11.3,0-17.4,0c2.9,5.4,5.7,10.5,8.5,15.7c14.8,0,29.5,0,44.2,0
		c0.7,0.8,1.4,1.5,1,2.8c-14.5,0-29,0-43.5,0c0.2,2,1.5,1.8,2.8,1.8c5.4,0,10.8,0,16.2,0c8.7,0,17.4,0,26,0c0.6,0.8,1.3,1.3,1.3,2.6
		c-14.6,0-29,0-43.5,0c0.1,2.4,1.6,1.8,2.7,1.8c10.1,0,20.2,0,30.4,0c4,0,7.9,0,11.8,0c0.5,1,1.2,1.7,0.7,3.1c-14.2,0-28.5,0-43.3,0
		c1.2,2.3,2.2,4.2,3.3,6.1c14.9,0,29.7,0,44.4,0c0.4,0.9,1,1.6,0.7,2.9c-14.3,0-28.7,0-43.3,0c1.1,2.5,2,4.5,3.3,6.4
		c14.7,0,29.4,0,44,0c0.7,0.7,1.2,1.3,1.1,2.6c-14.4,0-28.8,0-43.2,0c0.3,2.2,1.7,1.8,2.9,1.8c11.2,0,22.3,0,33.5,0
		c2.7,0,5.5,0,8.1,0c0.6,1.1,1.5,1.7,1.2,3.1c-7.3,0-14.4,0-21.6,0c-7.2,0-14.5,0-22.2,0c3,5.4,5.8,10.4,8.7,15.5c5.5,0,11,0,16.6,0
		c-0.2,1,0.3,1.7-0.9,2.6c-4.4,0-9.1,0-14.3,0c1.8,1.4,49.8,1.8,53.7,0.7c-23.4-43.6-46.8-87.1-70.3-130.7
		C739.3,142.4,763.2,87.6,787.2,32.4z M725.6,70.4c-1.1,0.5-2,0.4-2.9,0.1c-0.4-0.9-0.4-1.8-0.1-2.7c0.9-0.6,1.8-0.4,2.7-0.2
		C726,68.4,725.7,69.3,725.6,70.4z M766.6,61.5c-1.9,0-3.8,0-5.6,0c-0.7-0.8-0.4-1.7-0.3-2.8c2.4,0,4.6,0,7,0
		C767.8,59.9,767.3,60.7,766.6,61.5z M765.8,45.1c2.1,0,3.9,0,5.6,0c0.6,0.8,0.6,1.6,0.1,2.4c-1.9,0-3.7,0-5.4,0
		C765.3,46.8,765.7,46.1,765.8,45.1z M747.1,45.2c4.9,0,9.9,0,14.9,0c0.5,0.8,0.5,1.4,0.2,2.2c-5,0-10,0-15.1,0
		C746.6,46.8,746.7,46.1,747.1,45.2z M757.2,61.5c-1.5,0-2.9,0-4.4,0c-0.5-1-0.5-1.9,0-2.8c1.4-0.5,2.8-0.2,4.3-0.2
		C757.6,59.6,757.6,60.5,757.2,61.5z M731.4,70.3c-0.7,0.5-1.3,0.6-1.9,0.2c-0.6-0.9-0.1-1.8-0.2-2.6c0.7-0.6,1.3-0.5,2.2-0.1
		C731.4,68.7,731.4,69.5,731.4,70.3z M731.5,47.3c-0.9,0.4-1.5,0.4-2.1,0c-0.4-0.7-0.2-1.4,0-2.1c0.4-0.1,0.6-0.3,0.9-0.2
		C731.9,45.1,731.4,46.3,731.5,47.3z M742.3,47.5c-2.1,0-4.3,0-6.5,0c-0.3-0.9-0.4-1.5,0.2-2.3c1.9,0,4,0,6.1,0
		C742.8,45.8,742.7,46.6,742.3,47.5z M743.2,70.5c-0.8-0.8-0.4-1.5-0.3-2.4c7,0,13.9,0,20.9,0c0,1-0.4,1.7-1,2.4
		C756.3,70.5,749.8,70.5,743.2,70.5z M702.5,130.3c-2.4,0-4.8,0-7,0c-0.5-0.8-0.4-1.5-0.1-2.5c2.4,0,4.7,0,6.8,0
		C703.1,128.6,702.7,129.4,702.5,130.3z M730.4,109.6c1-0.5,2-0.2,3-0.2c0.6,1.1,0.4,1.7,0.2,2.4c-1.1,0.5-2.1,0.4-3.1,0.2
		C729.9,111.1,730,110.4,730.4,109.6z M725.7,109.7c0.8-0.4,1.3-0.5,1.9-0.1c0.4,0.8,0.4,1.6-0.1,2.5
		C725.4,112.3,725.5,111.1,725.7,109.7z M720.3,109.6c1.1-0.4,1.9-0.4,2.7-0.2c0.5,0.8,0.6,1.5,0.1,2.4c-0.9,0.6-1.7,0.2-2.4,0.2
		C719.9,111.1,720.2,110.4,720.3,109.6z M716.6,109.3c2.2,0.3,1.3,1.6,1.3,3C715.6,111.6,716.2,110.5,716.6,109.3z M710.1,109.5
		c1.2-0.3,2.4-0.3,3.5,0c0.5,0.7,0.5,1.4,0.1,2.2c-1,0.6-2.1,0.2-3.1,0.3C709.5,111.3,709.8,110.5,710.1,109.5z M706.8,114.4
		c10,0,19.8,0,29.8,0c0.3,0.9,0.3,1.7-0.1,2.7c-9.8,0-19.5,0-29.2,0C706.5,116.2,707,115.4,706.8,114.4z M731.8,121.6
		c1.1-0.6,1.7-0.5,2.2-0.2c0.5,1,0.4,1.9,0.1,2.8c-0.6,0.6-1.2,0.5-1.9,0.3C731.5,123.6,732,122.6,731.8,121.6z M714.2,121.5
		c5.2,0,10.1,0,15.2,0c0.5,1,0.3,1.8,0.2,2.8c-5,0-9.9,0-14.9,0C713.9,123.6,714.6,122.6,714.2,121.5z M711.7,122.8
		c-0.1,1,0.1,2-1.5,1.8c-0.5-1.1-0.6-2.1,0-3.2C711.5,121.1,711.7,121.8,711.7,122.8z M717.7,130.2c-3.4,0-6.9,0-10.4,0
		c-0.6-0.7-0.6-1.4-0.2-2.3c3.6,0,7.1,0,10.5,0C718.1,128.7,718.1,129.4,717.7,130.2z M733.4,130.4c-2.5,0.1-5,0-7.5,0
		c-0.5-0.9-0.9-1.6-0.1-2.4l0,0c3.6-0.9,7.2-1,10.7,0c0,0.6,0,1.1,0,1.7C735.9,131.2,734.5,130.4,733.4,130.4z M661.5,57
		c-2.4,0-4.9,0-7.4,0c-0.6-0.7-0.4-1.5,0-2.4c2.4,0,4.8,0,7.3,0C661.9,55.4,661.8,56.1,661.5,57z M665.3,49.7c0.4,1.1,1,2.2-0.4,3.1
		C663.7,51.5,663.6,50.5,665.3,49.7z M674.1,57c-3.2,0-6.3,0-9.6,0c-0.5-0.8-0.4-1.6-0.1-2.5c3.2,0,6.4,0,9.7,0
		C674.7,55.4,674.4,56.1,674.1,57z M647.8,161.8c-0.6,0.7-1.2,0.5-2,0.2c0-1,0-1.8,0-2.8C648.4,158.8,647.7,160.6,647.8,161.8z
		 M676.4,162.1c-6.9,0-13.6,0-20.3,0c-0.7-0.8-0.4-1.7-0.4-2.7c6.8,0,13.6,0,20.7,0C676.4,160.4,676.4,161.2,676.4,162.1z
		 M641.5,318.1c-1-1-1-2-0.2-3.4C642.4,316,642,317,641.5,318.1z M650.8,318.1c-1.7,0.2-3.4,0.7-5.1-0.2c1.4-0.1,2.8-0.1,4.2-0.2
		c0.8-0.6,0.7-1.2,0.2-2.1c-1.4-0.1-2.9-0.1-4.4-0.2c1.6-1,3.2-0.3,4.9-0.4C651.3,316,651.2,316.9,650.8,318.1z M676.4,130.1
		c-2,0.1-2,0.1-1.8-2.5c0.6-0.4,1.2-0.5,2,0C676.6,128.5,676.8,129.3,676.4,130.1z M676.5,126.2c-4.6,0-9.3,0-13.9,0
		c-0.4-0.8-0.3-1.5,0-2.4c4.4,0,8.9,0,13.6,0C676.9,124.3,676.5,125.2,676.5,126.2z M671.9,139.2c-0.9,0.4-1.5,0.2-1.6-0.8
		c0-0.9-0.5-2.2,1.4-2.3C672.2,137.2,672.2,138.2,671.9,139.2z M675.5,140.9c0.4,1.1,0.4,1.9-0.1,2.8c-1.5,0-3.1,0-4.6,0
		c-0.5-0.9-0.5-1.8-0.1-2.8C672.2,140.9,673.8,140.9,675.5,140.9z M671.9,127.4c0.2,1.1,0.3,1.9,0,2.8c-1.1,0.4-1.5-0.1-1.5-1.2
		C670.3,128.2,670.2,127.1,671.9,127.4z M667.9,143.7c-1.2,0.4-1.6-0.1-1.6-1.2c0-0.9-0.2-2,1.4-1.7
		C668.4,141.7,668.2,142.7,667.9,143.7z M667.5,148.5c-1.7-1.8-1.7-2.2,0.3-2.8C668.3,146.6,668.2,147.5,667.5,148.5z M667.9,130.2
		c-1.5,0.4-1.5-0.5-1.6-1.4c-0.1-1.1,0.2-1.7,1.5-1.4C668.4,128.4,668.1,129.3,667.9,130.2z M663,68.1c4.4,0,8.8,0,13.2,0
		c0.5,0.8,0.4,1.7,0.1,2.7c-4.3,0-8.7,0-13.2,0C662.7,69.9,662.6,69.1,663,68.1z M669.4,90.7c-0.4-1.1-0.3-1.8,0-2.8
		c2.3,0,4.5,0,7.1,0c0,1,0,1.7,0,2.6C674,91.1,671.7,90.7,669.4,90.7z M673.4,95.4c-0.4-1.4-0.8-2.5,1-2.9
		C674.5,93.5,675.5,94.9,673.4,95.4z M660.8,95.1c-0.6-0.9-0.4-1.7-0.2-2.6c3.3,0,6.5,0,9.8,0c0.5,0.8,0.4,1.6,0,2.6
		C667.3,95.1,664,95.1,660.8,95.1z M660.6,99.8c-0.1-1.1-1-2.5,1.3-2.6C662.2,98.4,663.1,99.8,660.6,99.8z M664.7,88
		c0.9-0.3,1.6-0.3,1.6,0.9c0,1,0.3,2.2-1.5,1.8C664.3,89.9,664.5,89,664.7,88z M651.1,81.6c5.8,0,11.6,0,17.5,0
		c0.5,0.9,0.4,1.7-0.1,2.7c-5.7,0-11.4,0-17.4,0C651.1,83.4,651.1,82.6,651.1,81.6z M645.7,68.3c0.6-0.5,1.2-0.5,1.8-0.2
		c0.6,0.8,0.2,1.6,0.3,2.3c-0.6,0.7-1.2,0.4-2.1,0.5C645.7,69.8,645.7,69.1,645.7,68.3z M635.7,81.7c3.9,0,7.8,0,11.8,0
		c0.5,0.8,0.4,1.7,0,2.7c-3.9,0-7.9,0-11.8,0C635.4,83.5,635.3,82.7,635.7,81.7z M647.7,90.4c-0.6,0.5-1.1,0.5-1.8,0.2
		c-0.5-0.7-0.1-1.6-0.2-2.6c0.6-0.1,0.8-0.2,1.1-0.2c0.3,0,0.5,0.1,0.8,0.1C648,88.8,647.8,89.6,647.7,90.4z M654.2,90.4
		c-1,0.8-2,0.3-2.9,0.4c-0.5-1-0.4-1.8-0.2-2.8c1.1-0.3,2-0.3,2.9,0C654.5,88.8,654.3,89.6,654.2,90.4z M656.8,90.7
		c-0.7-0.9-0.3-1.7-0.4-2.7c1.9,0,3.6,0,5.5,0c0.7,0.8,0.2,1.7,0.3,2.7C660.1,90.7,658.5,90.7,656.8,90.7z M645.7,104.7
		c0.7-0.4,1.2-0.4,1.7-0.1c0.6,0.7,0.3,1.6,0.2,2.7c-0.7,0-1.2,0-1.8,0C645.4,106.3,645.8,105.5,645.7,104.7z M641.5,112
		c-0.9-1-1-2-0.2-3.4C642.4,109.8,641.9,110.9,641.5,112z M641.8,107.3c-2,0-4,0-6.3,0c0-1.1,0-1.9,0-2.8c2.1,0,4.2,0,6.2,0
		C642.2,105.4,642.1,106.3,641.8,107.3z M650.8,111.7c-1.6,0.5-3.3,0.3-4.9,0.2c-0.3-1.1-0.2-2,0.1-2.9c1.6-0.1,3.2-0.3,4.7,0.1
		C651.2,110,650.9,110.8,650.8,111.7z M651.1,107c0-0.7,0-1.4,0-2.1c0-0.4,0.3-0.7,0.7-0.7c5.7,0,11.3,0,16.9,0
		c0.7,1.2,0.7,2.1,0.1,3.4c-5.7,0-11.4,0-17.2,0C651.5,107.6,651.3,107.2,651.1,107z M676.4,111.8c-4.4,0-8.8,0-13.3,0
		c-0.6-0.8-0.4-1.7-0.1-2.8c4.4,0,8.8,0,13.4,0C676.4,110,676.4,110.8,676.4,111.8z M664.6,99.7c0-0.9,0.1-1.6,0.1-2.4
		c3.9,0,7.6,0,11.4,0c0.8,0.6,0.3,1.5,0.4,2.4C672.5,99.7,668.7,99.7,664.6,99.7z M651.1,118.1c8.4,0,16.7,0,25.1,0
		c0.6,0.8,0.3,1.6,0.3,2.6c-8.4,0-16.7,0-25.3,0C651.1,119.7,651.1,119,651.1,118.1z M660.6,126.2c-1,0.3-2,0.3-3,0
		c-0.6-0.9-0.6-1.7,0-2.5c1-0.1,2-0.3,3,0.1C661.1,124.6,661.1,125.4,660.6,126.2z M654.2,126.5c-1.5-0.8-1-1.8-0.5-3.3
		C655.3,124.3,655.5,125.2,654.2,126.5z M650.6,123.5c0.5,1.1,0.7,2,0,2.8C648.7,125.3,648.7,124.9,650.6,123.5z M643.8,123.8
		c0.9-0.5,1.8-0.3,2.8-0.1c0.6,0.8,0.5,1.5,0.2,2.3c-0.9,0.6-1.8,0.3-2.7,0.3C643.2,125.5,643.3,124.7,643.8,123.8z M641.1,131.5
		c-0.6-0.7-0.3-1.6-0.1-2.7c7.6,0,15.1,0,22.9,0c0.3,0.9,0.4,1.7,0,2.7C656.3,131.5,648.7,131.5,641.1,131.5z M658.1,139.2
		c-0.5-1-0.4-1.9,0-2.9c3.2,0,6.5,0,9.7,0c0.6,1,0.2,1.9,0.2,2.9C664.6,139.2,661.3,139.2,658.1,139.2z M676.1,195.7
		c0.7,0.8,0.4,1.7,0.3,2.8c-2.3,0.4-4.6,0.2-7.2,0.1c0-1.1,0-1.9,0-2.9C671.6,195.7,673.8,195.7,676.1,195.7z M673.5,203.3
		c-0.4-1.1-0.7-2,0.2-2.7C675.2,201.8,675.2,202,673.5,203.3z M670.4,200.8c0.6,0.7,0.5,1.4,0,2.2c-3.1,0-6.3,0-9.6,0
		c-0.5-0.8-0.4-1.4-0.2-2.2C663.9,200.8,667.1,200.8,670.4,200.8z M664.7,195.8c0.7-0.4,1.5-0.5,1.5,0.6c0.1,0.9,0.7,2.4-1.4,2.3
		C664.4,197.6,664.4,196.7,664.7,195.8z M654,173.2c5.8,0,11.4,0,17,0c0.9,0.7,0.6,1.5,0.4,2.4c-5.8,0-11.5,0-17.3,0
		C653.5,175,653.7,174.2,654,173.2z M651.7,186.7c2.3,0,4.4,0,6.6,0c0.6,0.8,0.2,1.7,0.3,2.7c-2.3,0-4.4,0-6.7,0
		C651.4,188.5,651.6,187.7,651.7,186.7z M641.9,175.7c-2.2,0-4.2,0-6.2,0c-0.6-0.8-0.3-1.6-0.3-2.5c2.2,0,4.2,0,6,0
		C642.5,174,642,174.8,641.9,175.7z M647.7,198.3c-0.7,0.5-1.2,0.4-1.8,0.2c-0.6-0.8-0.1-1.7-0.3-2.5c0.7-0.8,1.3-0.4,1.8-0.4
		C648,196.6,647.8,197.4,647.7,198.3z M647.7,175.7c-0.7,0.3-1.2,0.3-1.8,0.1c-0.6-0.5-0.6-1.2-0.4-1.8c0.3-1.1,1.1-1.1,2-0.7
		C648.2,173.9,648.1,174.7,647.7,175.7z M654.1,198.4c-1.1,0.4-2,0.4-2.9,0.1c-0.3-0.9-0.4-1.8,0-2.7c0.9-0.5,1.8-0.3,2.7,0
		C654.4,196.5,654.2,197.4,654.1,198.4z M656.8,198.7c-0.5-1.1-0.4-2,0-3.1c1.8,0,3.5-0.2,5.1,0.2c0.7,0.8,0.1,1.7,0.4,2.6
		C660.4,199,658.6,198.5,656.8,198.7z M660.6,207.7c-0.2-1.4-0.9-2.7,1.4-2.9C662.2,206.1,663.1,207.4,660.6,207.7z M676.3,207.5
		c-3.8,0-7.6,0-11.5,0c-0.5-0.8-0.5-1.5,0-2.4c3.8,0,7.6,0,11.4,0C676.7,205.9,676.6,206.6,676.3,207.5z M641,221.4
		c-0.5-0.9-0.1-1.8-0.3-2.9c12,0,23.7,0,35.4,0c0.6,0.9,0.4,1.8,0.2,2.9C664.6,221.4,652.8,221.4,641,221.4z M662.5,237.4
		c4.6,0,9.1,0,13.9,0c0,0.9,0,1.6,0,2.5c-4.6,0-9.1,0-13.6,0C662.1,239.2,662.3,238.4,662.5,237.4z M671.7,241
		c0.6,1,0.4,1.9,0.1,2.8c-1,0.3-1.5,0-1.5-1C670.3,241.9,670.2,240.8,671.7,241z M667.8,243.8c-1,0.4-1.5,0-1.5-0.9
		c0-0.8-0.4-2,1.5-1.8C668.2,242,668.2,242.9,667.8,243.8z M657.6,237.4c1-0.5,2-0.2,3-0.2c0.7,1,0.7,1.8,0,2.7c-1,0.1-2,0.3-3-0.1
		C657.1,239,657.1,238.2,657.6,237.4z M653.9,237c1.8,0.9,1.1,1.9,0.9,3.5C652.8,239.3,653,238.3,653.9,237z M650.3,237.1
		c1,1.2,1.1,2.1-0.4,3.3C649,238.9,648.8,238,650.3,237.1z M643.6,237.6c1-0.6,1.9-0.4,2.9-0.2c0.7,0.8,0.4,1.6,0.3,2.3
		c-1,0.6-2,0.3-2.9,0.3C643.2,239.2,643.4,238.4,643.6,237.6z M640.8,242.4c7.6,0,15.2,0,22.9,0c0.5,0.8,0.3,1.7,0.1,2.7
		c-7.6,0-15.2,0-23,0C640.8,244.2,640.8,243.4,640.8,242.4z M645.4,252c-0.6,0.6-1.1,0.5-1.8,0.2c-0.4-0.9-0.2-1.8,0.1-2.9
		C646.2,249.7,645.4,251.1,645.4,252z M650.7,258.3c-3.4,0-6.5,0-9.6,0c-0.5-0.8-0.4-1.5-0.1-2.4c3.2,0,6.4,0,9.7,0
		C651.1,256.7,651,257.4,650.7,258.3z M658.9,252.3c-3.9,0-7.5,0-11.1,0c-0.4-0.9-0.4-1.7,0.1-2.7c3.6,0,7.2,0,10.8,0
		C659.2,250.4,659,251.3,658.9,252.3z M676.4,258.3c-4.5,0-8.8,0-13.3,0c-0.6-0.7-0.4-1.5-0.1-2.4c4.4,0,8.8,0,13.4,0
		C676.4,256.8,676.4,257.4,676.4,258.3z M676.2,278c0.6,0.7,0.2,1.6,0.2,2.6c-8.3,0-16.7,0-25.3,0c0-0.9,0-1.7,0-2.6
		C659.5,278,667.8,278,676.2,278z M676.1,291.7c0.6,0.8,0.5,1.5,0.1,2.4c-8,0-16.1,0-24.3,0c-0.7-0.7-0.3-1.5-0.2-2.4
		C659.9,291.7,667.9,291.7,676.1,291.7z M654.4,287.2c1.4-0.3,2.1,0,2.1,1.3c0,1.4-0.8,1.5-1.9,1.3C654,289,654.3,288.2,654.4,287.2
		z M658.5,287.3c1.1-0.4,2.2-0.3,3.3-0.1c0.7,0.7,0.6,1.5,0.3,2.3c-1.2,0.7-2.3,0.2-3.6,0.3C658.1,288.7,658.1,288,658.5,287.3z
		 M676.5,285.3c-2.9,0-5.7,0-8.4,0c-0.5-1-0.3-1.9,0-3c2.7,0,5.5,0,8.1,0C676.7,283.3,676.5,284.2,676.5,285.3z M676.1,287.3
		c0.5,0.8,0.5,1.4,0.1,2.3c-3.9,0-7.8,0-11.9,0c-0.3-0.9-0.3-1.5,0.1-2.3C668.3,287.3,672.2,287.3,676.1,287.3z M641.6,266.8
		c-1.9,0-3.9,0-5.8,0c-0.7-0.8-0.4-1.6-0.1-2.4c2,0,3.9,0,6.1,0C642.1,265.3,642.1,266.1,641.6,266.8z M645.7,266.8
		c0-0.9-0.1-1.6-0.1-2.4c7.8,0,15.4,0,23.1,0c0.5,0.7,0.4,1.5-0.1,2.4C661.1,266.8,653.6,266.8,645.7,266.8z M645.9,287.4
		c1.9,0,3.8,0,5.9,0c0.5,0.8,0.5,1.4,0.1,2.3c-2,0-4,0-5.9,0C645.3,288.9,645.7,288.2,645.9,287.4z M649.7,293.3c-0.1,1.3-1,1-1.7,1
		c-0.7-0.8-0.6-1.6-0.3-2.5c0.7-0.3,1.2-0.3,1.8,0C649.9,292.2,649.7,292.8,649.7,293.3z M646.4,298.7c-0.5-0.8-0.3-1.5,0-2.4
		c3.2,0,6.4,0,9.6,0c0.5,0.7,0.5,1.4,0.2,2.4C653,298.7,649.8,298.7,646.4,298.7z M656.5,308.4c-1.4-2-1.3-2.6,0.7-3.2
		C657.2,306.4,657.9,307.5,656.5,308.4z M659.9,305.3c5.4,0,10.8,0,16.3,0c0.5,1,0.4,1.9,0.1,2.9c-5.6,0-10.9,0-16.3,0
		C659.4,307.2,659.5,306.3,659.9,305.3z M676.5,318c-4.6,0-9,0-13.5,0c-0.3-1-0.3-1.8,0-2.8c4.3,0,8.7,0,13.2,0
		C676.9,316,676.3,316.9,676.5,318z M676.4,244.1c-2-0.7-2-0.7-1.8-2.8c0.5-0.5,1-0.3,1.7-0.2C676.8,242,676.6,242.9,676.4,244.1z
		 M652.2,152.6c-0.3-0.9-0.3-1.8,0.1-2.7c7.9,0,15.9,0,23.8,0c0.7,0.9,0.2,1.7,0.5,2.7C668.4,152.6,660.4,152.6,652.2,152.6z
		 M676.5,139.1c-0.7,0.5-1.4,0.5-2-0.1c-0.1-2.4-0.1-2.4,1.7-2.8C676.9,137.1,676.6,138.1,676.5,139.1z M722.5,290.1
		c-1.5,0-2.9,0-4.4,0c-0.7-0.7-0.6-1.5-0.2-2.3c1.6-0.3,3.1-0.2,4.7-0.1C723,288.5,723,289.3,722.5,290.1z M728.8,299.9
		c-1.4-0.7-1-1.9-1-3.2c0.7,0,1.2,0,1.7,0C729.8,297.9,730.2,299.1,728.8,299.9z M747,299.5c-4.4,0-8.7,0-12.9,0
		c-0.8-0.7-0.3-1.6-0.5-2.6c4.5,0,8.9,0,13.5,0C747.1,297.8,747.1,298.5,747,299.5z M755.3,299.5c-1.4,0-2.7,0-4.1,0
		c-0.7-0.8-0.3-1.7-0.4-2.8c1.6,0,3,0,4.5,0C755.8,297.7,755.8,298.5,755.3,299.5z M728.3,314c-0.7-1.8-1.1-3.1,1.1-3.9
		C729.9,311.9,730.5,313.2,728.3,314z M741.1,313.5c-2.4,0.2-4.8,0.2-7-0.1c-0.6-1-0.4-1.9-0.1-2.8c2.4,0,4.7,0,7,0
		C741.4,311.6,741.3,312.4,741.1,313.5z M745.3,313.5c-0.5-1-0.3-1.8-0.2-2.8c5.2,0,10.4,0,15.7,0c0.5,0.8,0.1,1.7,0.2,2.8
		C755.8,313.5,750.6,313.5,745.3,313.5z M755.4,327c-1.4,0.5-2.8,0.2-4.2,0.1c-0.6-0.7-0.4-1.5-0.3-2.3c1.5,0,3,0,4.5,0
		C755.8,325.5,755.8,326.2,755.4,327z M775.3,326.9c-5.2,0-10.4,0-15.7,0c-0.6-0.6-0.2-1.4-0.4-2.2c5.1,0,10,0,15.2,0
		C775.3,325.2,775.4,325.9,775.3,326.9z M767.3,310.7c0.7,0.8,1,1.7,1.2,2.8c-1.3,0.4-2.6,0.4-3.8,0.1c-0.6-1-0.6-2-0.1-3
		C765.4,310.3,766.3,310.3,767.3,310.7z M759.5,296.2c0.8,1.4,1.6,2.1,1.5,3.1c-0.4,0.4-0.9,0.4-1.4,0.3
		C759,298.8,759.2,297.9,759.5,296.2z M725.7,261.1c0.5,1.1,0.5,2,0.1,3c-0.6,0.3-1.2,0.3-1.9-0.1c-0.4-0.9-0.3-1.8-0.1-2.6
		C724.5,260.8,725.1,261.1,725.7,261.1z M716.8,256.1c2.2-0.5,4.4-0.2,6.5-0.2c0.6,0.8,0.5,1.5,0.1,2.3c-2.1,0-4.2,0-6.4,0
		C716.6,257.5,716.7,256.8,716.8,256.1z M721.4,264.2c-0.8,0-1.4,0-2.1,0c-0.6-0.9-0.5-1.9-0.1-2.9c0.7-0.4,1.4-0.3,2.2,0
		C721.9,262.1,721.8,263,721.4,264.2z M714.4,261.5c0.6-0.7,1.3-0.6,2.1-0.3c0.5,0.9,0.4,1.8,0.2,2.7c-0.6,0.7-1.3,0.5-2.2,0.2
		C714.1,263.1,714.1,262.3,714.4,261.5z M708.4,261.3c1.1-0.4,2.3-0.4,3.4,0c0.5,0.9,0.4,1.8,0.1,2.7c-1.1,0.6-2.2,0.2-3.4,0.3
		C708,263.2,708.1,262.3,708.4,261.3z M735.3,269c-10.1,0-20.1,0-30.1,0c-0.5-0.7-0.3-1.5,0-2.3c10,0,20,0,30.1,0
		C735.3,267.5,735.3,268.2,735.3,269z M728.3,261.3c1.4-0.7,2.7-0.5,4-0.2c0.5,1,0.4,1.9,0.2,3c-1.4,0.5-2.7,0.3-3.8,0.2
		C727.9,263.2,728.3,262.3,728.3,261.3z M738.8,258.3c-3.7,0-7.1,0-10.5,0c-0.7-0.7-0.4-1.4-0.3-2.4c3.1,0,6.3,0,9.6,0
		C738.1,256.3,738.4,257.1,738.8,258.3z M715.2,180c-2.9,0.5-5.7,0.2-8.8,0.2c-0.5-1-1.3-1.7-1.2-2.9c3.5,0,6.9,0,10.3,0
		C716.1,178.3,715.5,179.1,715.2,180z M712.2,219.6c0.5,0.8,0.3,1.5,0.1,2.2c-2.5,0-4.9,0-7.3,0c-0.2-1,0.2-1.6,0.4-2.2
		C707.8,219.6,710.1,219.6,712.2,219.6z M711,206.5c1.1,0.6,1.6,1.1,1.1,2.2C710.6,208.6,710.4,207.9,711,206.5z M711.7,225.3
		c1.3,1.2,1.4,2.1,0.1,3.2C710.4,227.5,710.4,226.6,711.7,225.3z M712.6,161.6c-0.6-0.7-0.4-1.4-0.2-2.3c2.1,0,4.2,0,6.6,0
		c0.4,0.8,0.4,1.5-0.1,2.3C716.8,161.6,714.7,161.6,712.6,161.6z M716.3,165.2c0,1-0.7,1.2-1.6,1c-0.6-0.9-0.3-1.6-0.2-2.2
		c0.3-0.1,0.5-0.3,0.6-0.3C716.2,163.7,716.3,164.4,716.3,165.2z M712,166.6c-4.4-0.2-8.9,0.8-13.3-0.5c-0.2-0.4-0.4-0.7-0.6-1.1
		c-0.6-0.4-0.7-0.8-0.2-1.6c4.6,0,9.3,0,14,0C712.6,164.5,712.5,165.3,712,166.6z M710,168.4c0.5,0.9,0.4,1.7,0.1,2.7
		c-3,0-5.8,0-8.7,0c-0.5-0.8-1-1.6-1.6-2.7C703.4,168.4,706.7,168.4,710,168.4z M718.7,171.1c-1.9,0-3.8,0-5.7,0
		c-0.5-0.9-0.4-1.7-0.2-2.7c2.3-0.3,4.6-0.2,6.9,0C719.8,169.5,719.3,170.2,718.7,171.1z M718.6,166.2c-0.2-0.9-0.3-1.6,0.1-2.4
		c1,0,2,0,3,0C721.3,166.2,721.3,166.2,718.6,166.2z M725.3,152.7c-2.4,0.3-4.8,0.2-7.3,0c0-0.9,0-1.8,0-2.7
		c2.4-0.5,4.8-0.2,7.2-0.2C725.8,150.7,725.8,151.6,725.3,152.7z M712.6,136.4c6.2,0,12.4,0,18.6,0c0.6,0.8,0.3,1.5,0.2,2.3
		c-6.3,0-12.5,0-18.6,0C712,137.9,712.3,137.2,712.6,136.4z M701.2,136.4c2.3,0,4.7,0,6.8,0c0.9,0.8,0.3,1.5,0.3,2.3
		c-2.5,0-4.8,0-7,0C700.7,137.8,700.9,137.1,701.2,136.4z M695.4,149.9c6.1,0,12.2,0,18.4,0c0.7,0.7,0.5,1.7,0.1,2.8
		c-6.1,0-12.3,0-18.5,0C695,151.7,695.1,150.9,695.4,149.9z M708.4,159.4c0.2,0.8,0.2,1.5-0.3,2.2c-3.8,0-7.7,0-11.7,0
		c-0.4-0.6-0.9-1.3-1.5-2.2C699.5,159.4,703.8,159.4,708.4,159.4z M690.3,149.5c0.9,0.5,1.1,1.1,0.4,1.9
		C689.7,150.9,689.8,150.3,690.3,149.5z M690.4,233.8c0.9,1.9,0.4,3.4-1.8,3.8c-0.8,2.4-2.1,4.6-2.2,7.1c0,0.2,0,0.4,0,0.5
		c0-0.2,0-0.4,0-0.5c0-28.1,0-56.1,0-84.9c6.8,12.9,13.3,25.2,19.9,37.7c-2.3,1.8,0.9,5.6-1.8,6.5c-4.1,7.1-7,13.9-10.1,20.9
		c1,1.8,0.3,3.1-1.7,3.6C692.6,231.6,692.6,231.6,690.4,233.8z M701.1,249.1c-2.4,0-4.9,0-7.4,0c-0.7-0.8-0.4-1.6,0-2.5
		c2.4-0.5,4.7-0.3,7.3-0.1C701.4,247.5,701.4,248.2,701.1,249.1z M704.9,249.7c0.2-1.6-1-3.1,1.4-3.5
		C706.8,247.6,707.5,248.8,704.9,249.7z M706.4,244.9c-2.2,0-4.3,0-6.3,0c-0.9-0.7-0.5-1.5-0.4-2.5c2.2,0,4.4,0,6.7,0
		C706.9,243.1,706.8,243.9,706.4,244.9z M716.4,249.5c-1.8,0-3.6,0.7-5.3-0.4l0,0c-0.9-0.8-0.5-1.7-0.3-2.7c1.8-0.5,3.7-0.3,5.5-0.1
		C717,247.4,717,248.3,716.4,249.5z M711.4,242c1.6,0.9,1.3,1.9,0.7,3.1C710.4,244.2,710.9,243.3,711.4,242z M723.4,244.9
		c-2.1,0-4.2,0-6.4,0c-0.6-0.8-0.4-1.5-0.1-2.5c2.1,0,4.3,0,6.6,0C723.8,243.3,723.9,244,723.4,244.9z M729.5,249.2
		c-1.8,0-3.5,0-5.3,0c-0.6-0.8-0.5-1.7-0.3-2.6c1.7-0.5,3.5-0.3,5.2-0.2C730.1,247.3,729.6,248.2,729.5,249.2z M729.8,242.3
		c-0.1,1.4,0.7,3-1.8,2.7C727.7,243.6,727.1,242.2,729.8,242.3z M727.3,237c-9.6,0-19.2,0-29.2,0c0.4-0.9,0.6-1.5,1-2.3
		c9.1,0,18,0,26.9,0C727,235.2,727.1,236,727.3,237z M721,225.9c1.2,0.1,0.9,1.2,1.5,1.6c-0.4,0.9-1,0.6-1.7,0.6
		C720.7,227.2,720.5,226.5,721,225.9z M716.9,219.5c1.6-0.2,1.8,1,2.4,2c-0.9,0.6-1.5,0.4-2.2,0.3
		C716.5,221.1,716.7,220.4,716.9,219.5z M716.9,226c0.8-0.5,1.6-0.3,2.5-0.1c0.2,0.8,0.3,1.4,0,2.1c-0.8,0-1.6,0-2.5,0
		C716.5,227.4,716.7,226.7,716.9,226z M723.6,230.3c0.7,0.6,1.2,1.2,1.5,2.3c-8.4,0-16.6,0-24.9,0c-0.1-0.9,0.4-1.6,1-2.3
		C708.5,230.3,716.1,230.3,723.6,230.3z"/>
	<g>
		<path class="st16" d="M466.4,162.7c0.2-0.1,0.4-0.2,0.6-0.2C466.8,162.5,466.6,162.6,466.4,162.7z"/>
		<path class="st16" d="M549,50.9c0,61.9,0,123.5,0,185.2c-15.3,0-30.4,0-45.7,0c0-78.7,0-157.2,0-235.7c-2.1-0.6-4.1-0.3-6.1-0.3
			c-15.4,0-30.8,0-46.3,0c-0.9,0-2.4-0.7-2.4,1.6c10.9,0,21.7,0,32.6,0c0,1.4,0,2.5,0,3.9c-10.9,0-21.8,0-32.7,0
			c0.2,2.1,1.6,1.6,2.6,1.6c7.2,0,14.3,0,21.5,0c0.5,1.1,0.4,2-0.1,3.4c-7.8,0-15.8,0-23.8,0c0,0.5,0,0.9,0,1.4
			c3.9,0.1,7.8,0,11.7,0c4.1,0,8.2,0,12.7,0c-0.4,1.2,0.3,2.2-0.6,3.2c-7.8,0-15.7,0-23.7,0c0,2.6,0,5,0,7.7c15.3,0,30.3,0,45.4,0
			c0.2,1.2,0.3,2-0.2,3.1c-15.1,0-30.2,0-45.6,0c0.5,2.8,2.9,0.9,3.9,2c0.3,0.8,0.5,1.7-0.1,2.4c-1.2,0.5-2.6-0.2-3.5,0.5
			c0,4.2,0,8.2,0,12.4c3.1,0,6,0,9.1,0c0.1,1.1,0.4,2-0.2,3.1c-3,0-5.9,0-9,0c0,3,0,5.7,0,8.8c6.9,0,13.7,0,20.5,0
			c0.2,1.4,0.4,2.4-0.2,3.6c-0.9,0-1.8,0-2.7,0c-5.2,0-10.4,0-15.6,0c-0.9,0-2.3-0.5-1.9,1.7c6.8,0,13.6,0,20.5,0
			c0.2,1.2,0.4,2.2-0.4,3.3c-6.6,0-13.4,0-20.3,0c0.2,1.8-0.3,3.3,0.3,4.8c1.2,0.1,2.4,0.2,3.6,0.3c0.3,1,0.4,1.8-0.1,2.7
			c-1.1,0.1-2.3,0.2-3.5,0.3c0,2.2,0,4.2,0,6.6c15.3,0,30.4,0,45.5,0c0.2,1.4,0.5,2.4-0.4,3.7c-14.9,0-30,0-45.1,0
			c3,1.5,6.2,0.4,9.2,1.2c0.1,1,0.3,1.8-0.3,2.9c-2.8,0-5.8,0-8.9,0c0,5.9,0,11.5,0,17.4c5.8,0,11.5,0,17.1,0c0.3,1.2,0.5,2-0.4,3.4
			c-5.4,0-11.2,0-16.9,0c0,0.3,0,0.7,0,1c4.2,0.8,8.5,0.3,12.8,0.4c4.5,0.1,9,0,13.4,0c0.5,1.2,0.5,2.1,0,3.2c-8.5,0-17.1,0-25.7,0
			c-0.4,0.8-0.5,1.3,0,2.2c8.5,0,17.2,0,25.8,0c0.4,1.2,0.5,2.1-0.2,3.1c-8.5,0-17.1,0-25.7,0c-0.3,2.4-0.3,4.7,0,7.1
			c15.2,0,30.3,0,45.4,0c0.1,1.2,0.4,2.1-0.5,3.3c-14.9,0-30.1,0-45.4,0c0.8,2.7,3.1,0.8,4.2,2c0,1,0.4,2.1-0.4,3.1
			c-1,0.8-3.2-0.9-3.8,1.9c15.5,0,30.6,0,45.7,0c0.5,1.2,0.6,2.2-0.3,3.5c-14.9,0-30,0-45.1,0c0,0.5-0.1,0.9-0.1,1.4
			c3.7,0,7.4,0,11.1,0c3.9,0,7.8,0,11.6,0c3.9,0,7.8,0,11.6,0c3.8,0,7.7,0,11.5,0c0,1.5,0.3,2.6-0.3,3.6c-0.9,0-1.8,0-2.8,0
			c-13.4,0-26.9,0-40.3,0c-0.9,0-2.5-0.8-2.4,1.3c1.1,0.9,2.6-0.1,3.8,0.7c0.3,0.9,0.4,1.8-0.1,2.8c-1.2,0.1-2.4,0.2-3.6,0.2
			c0,4.2,0,8.2,0,12.3c3.2-0.3,6.1-0.6,9.2-0.9c0.1,1.5,0.4,2.7-0.3,3.9c-3-0.3-6-0.5-9-0.8c0,4.5,0,8.6,0,13c6.9,0,13.7,0,20.4,0
			c0.3,1,0.5,1.7-0.2,2.7c-6.7,0-13.5,0-20.3,0c-0.1,2.2,1.3,1.6,2.2,1.6c6.1,0,12.2,0,18.3,0c0.3,1.2,0.5,2.1-0.3,3.2
			c-6.7,0-13.4,0-20.2,0c0,2.6,0,4.9,0,7.5c15.2,0,30.3,0,45.3,0c0.4,1,0.6,1.7,0,2.6c-15,0-30.1,0-45.4,0c0,4.4,0,8.5,0,12.7
			c15.2,0,30.4,0,45.6,0c0,1.2,0,2.2,0,3.4c-15.3,0-30.5,0-45.6,0c0,10.9,0,21.4,0,32.1c15.3,0,30.4,0,45.6,0
			c-0.1,1.2,0.4,2.1-0.7,3.3c-14.8,0-30,0-45.4,0c1,2.5,3,0.8,4.1,1.8c0.4,0.8,0.4,1.7-0.1,2.5c-1.2,0.6-2.5-0.2-3.6,0.5
			c0,4.1,0,8.1,0,12.3c3.2,0,6.2,0,9.2,0c0.1,1.2,0.4,2.1-0.5,3.2c-2.8,0-5.8,0-8.8,0c0.1,2.4-0.3,4.6,0.2,6.6
			c1.2,0.7,2.6-0.2,3.8,0.8c-0.1,0.8,0.4,1.7-0.2,2.5c-1.3,0.5-2.6-0.2-4.3,1c2.6,1.7,5.4,0.3,7.7,1.2c0.1,0.9,0.3,1.8-0.1,2.7
			c-2.3,0.4-4.7-0.2-6.9,0.4c-0.2,0.7-0.4,1.4,0.4,2.1c1.4,0,2.9,0,4.5,0c0.4,1.3,0.4,2.4,0,3.7c-1.7,0-3.3,0-5.2,0
			c0.2,2.3-0.3,4.3,0.4,6.5c4.7,0,9.3,0,14,0c0.1,1.1,0.4,2-0.2,3.2c-4.6,0-9.3,0-13.9,0c0,4.3,0,8.3,0,12.5c15.3,0,30.4,0,45.5,0
			c0.1,1,0.4,1.9-0.6,2.9c-14.8,0-29.9,0-45,0c0,2.5,0,4.8,0,7.3c15.2,0,30.3,0,45.4,0c0.5,1.1,0.5,2-0.2,3.4c-15,0-30.2,0-45.3,0
			c0,0.3,0,0.7-0.1,1c3,1.1,6.3-0.1,9.5,0.8c-0.1,1,0.4,1.9-0.5,2.9c-2.9,0-5.9,0-8.9,0c0,0.9-0.4,1.5,0.2,1.9c18.3,0,36.4,0,54.7,0
			c0-22.7,0-45.3,0-68.1c15.3,0,30.5,0,45.8,0c0,22.8,0,45.4,0,68.1c3.2,0,6.3,0,9.4,0c0-92.4,0-184.6,0-276.9
			C555.4,50.9,552.4,50.7,549,50.9z M450.7,306c0.1-1.1-0.6-2.5,0.9-3.5c1.7,0.8,0.7,2.3,1,3.4C452,306.6,451.5,306.6,450.7,306z
			 M461.3,306.2c-1.7,0.3-3.3,0.3-5,0c0-1.1,0-2.1,0-3.2c1.6-0.6,3.3-0.4,4.9-0.2C461.7,304,461.6,305,461.3,306.2z M479,111.4
			c-0.8,0.4-1.4,0.3-1.9,0c-0.4-0.9-0.4-1.7-0.1-2.5c0.5-0.5,1.1-0.5,1.8-0.3C479.3,109.6,479,110.5,479,111.4z M478.9,117.2
			c-2.8,0.2-2.1-1.4-2-2.7c0.5-0.8,1.2-0.6,1.9-0.5C479.3,115,479,116,478.9,117.2z M473.6,92.7c-0.4-1-0.3-1.8,0-2.9
			c6.8,0,13.6,0,20.4,0c0.6,0.9,0.2,1.8,0.2,2.9C487.2,92.7,480.3,92.7,473.6,92.7z M478.9,96.9c-0.7,0.3-1.2,0.3-1.8,0
			c-0.5-0.8-0.2-1.7-0.1-2.4c0.6-0.6,1.2-0.4,1.7-0.4C479.2,94.9,479,95.8,478.9,96.9z M494,96.9c-2.7,0-5.5,0-8.2,0
			c-0.5-0.9-0.3-1.7-0.2-2.7c2.7-0.4,5.5-0.2,8.4-0.1C494.3,95.2,494.4,96,494,96.9z M482.9,97c-1.4,0.3-1.7-0.2-1.7-1.3
			c0.1-0.9-0.1-2,1.5-1.7C483.4,94.9,483.2,95.9,482.9,97z M482.5,103.6c1,0.9,0.5,1.9,0.6,2.8c-0.5,0.5-1,0.6-1.9,0.1
			C481.6,105.5,480.6,104,482.5,103.6z M481.5,108.8c1.6-0.6,3.2-0.2,4.8-0.2c0.6,1,0.6,1.9,0.1,3c-1.5,0-3,0-4.7,0
			C481.2,110.5,481.3,109.7,481.5,108.8z M485.5,106.7c0-1,0-1.8,0-2.9c2.8,0,5.6,0,8.4,0c0.7,0.8,0.2,1.8,0.4,2.9
			C491.3,106.7,488.6,106.7,485.5,106.7z M494.2,46.2c-0.7,0.4-1.3,0.4-2,0c0-0.9,0-1.7,0-2.5c0.6-0.6,1.1-0.5,1.9-0.3
			C494.4,44.4,494.4,45.3,494.2,46.2z M494.1,177.8c-1.9,0.5-3.8,0.1-5.6,0.2c-0.6-0.9-0.4-1.6-0.2-2.6c1.9,0,3.7,0,5.4,0
			C494.6,176.1,494.3,176.9,494.1,177.8z M484.1,55.6c0.8-0.7,1.4-0.6,1.9-0.3c1,0.9,0.3,2.9-1.3,3.6
			C483.4,58,484.2,56.7,484.1,55.6z M480.1,53.3c0-1.1,0-2.2,0-3.4c4,0,8,0,12.1,0c0.6,1,0.2,2.1,0.3,3.4
			C488.4,53.3,484.4,53.3,480.1,53.3z M481.8,58.8c-3.6,0-7,0-10.4,0c-0.7-1.1-0.2-2.2-0.3-3.4c3.6,0,7,0,10.4,0
			C482,56.4,481.7,57.5,481.8,58.8z M471,61c0.6-0.6,1.2-0.6,1.9-0.3c0.5,0.7,0.4,1.5,0.3,2.4c-0.5,1-1.2,0.9-2,0.6
			C470.7,62.7,471.1,61.8,471,61z M477,49.8c0.6,1.3,0.4,2.5-0.1,4.1C475,52,475.1,50.9,477,49.8z M488.3,55.4
			c1.8-0.5,3.7-0.3,5.5-0.2c0.8,1.1,0.5,2.2,0.5,3.6c-2.1,0-4,0-5.8,0C487.8,57.6,488.1,56.6,488.3,55.4z M488.1,1.9
			c2.1,0,4,0,5.9,0c0.5,1.2,0.2,2.2,0.2,3.4c-2.1,0.5-4.2,0.2-6.4,0.2C487.7,4.1,487.3,2.9,488.1,1.9z M492.7,10.3c-2.6,0-5,0-7.4,0
			c-0.6-1-0.5-1.9-0.1-3c2.5-0.3,4.9-0.2,7.4-0.1C493.2,8.3,493.1,9.2,492.7,10.3z M484.2,1.7c1.7,0.9,1.7,0.9,1,3.8
			C483.2,4.6,483.1,4.2,484.2,1.7z M481.7,7.3c2.6-0.3,1.8,1.4,1.9,2.6C481.3,10,481.3,10,481.7,7.3z M478.7,7
			c1.9,1.6,1.9,2.2-0.1,3.1C478.1,9.2,478.2,8.2,478.7,7z M474.7,7.5c0.6-0.6,1.2-0.4,1.9-0.4c0.5,1,0.4,2,0.2,2.9
			c-0.7,0.6-1.3,0.1-1.8,0.2C474.3,9.2,474.5,8.4,474.7,7.5z M485.3,15c-3.5,0-7,0-10.5,0c-0.4-1-0.2-1.8,0-2.8c3.5,0,6.9,0,10.2,0
			C485.6,13.1,485.4,14,485.3,15z M489.5,15.3c-2.2-0.8-2.2-0.9-1.3-3.4C490.3,12.3,489.1,13.9,489.5,15.3z M491.9,15.1
			c-0.7-0.9-0.1-1.8-0.2-2.5c0.9-1,1.7-0.5,2.6-0.4c0,1,0.1,1.8,0.1,2.6C493.5,15.5,492.7,15.2,491.9,15.1z M473.9,27.8
			c6.6,0,13.3,0,19.9,0c0.6,0.8,0.4,1.6,0.3,2.7c-6.6,0-13.3,0-20.1,0C473.5,29.6,473.6,28.8,473.9,27.8z M462,43.5
			c5.9,0,11.8,0,17.7,0c0.4,0.9,0.4,1.7,0.2,2.8c-6,0-12,0-18.1,0C461.7,45.2,461.4,44.3,462,43.5z M456.7,31.2
			c-0.7-1.4-1.1-2.6,0.8-4C457.9,28.9,458.6,30.2,456.7,31.2z M456.5,53.6c-0.5-1.3-0.7-2.6,0.1-3.9
			C458.6,51.2,458.5,52.6,456.5,53.6z M464.4,53.4c-0.9,0-1.6,0-2.4,0c-0.7-1.1-0.4-2.2-0.2-3.3c0.8-0.6,1.6-0.2,2.4-0.3
			C464.8,51,464.7,52.1,464.4,53.4z M467.3,53.4c-0.4-1.2-0.4-2.3,0-3.5c1.9,0,3.7,0,5.6,0c0.7,1.1,0.4,2.2,0.3,3.5
			C471,53.4,469.1,53.4,467.3,53.4z M452.7,75.4c0,1.1-0.3,1.9-1.8,1.5c-0.4-1.2-0.5-2.4,0.2-3.6C452.8,73.2,452.7,74.3,452.7,75.4z
			 M456.4,69.1c1.2-0.2,1.6,0.2,1.6,1.2c0,0.9,0,1.8-1.4,1.5C455.9,71,456.1,70.1,456.4,69.1z M461.4,76.6c-1.6,0.2-3.2,0.4-4.7,0.5
			c-0.8-1.1-0.2-2.2-0.5-3.4c1.8,0,3.4,0,5.3,0C461.4,74.7,461.4,75.5,461.4,76.6z M461.7,68.8c6.2,0,12.1,0,18.1,0
			c0.2,1,0.4,1.9,0,2.9c-5.9,0-11.8,0-17.8,0C461.2,70.9,461.7,69.9,461.7,68.8z M493.8,76.7c-6.5,0-13.1,0-19.9,0
			c-0.4-0.9-0.4-1.9,0-3c6.6,0,13.3,0,20.1,0C494.2,74.8,494.4,75.6,493.8,76.7z M492.3,69.2c0.3-0.1,0.7-0.3,1-0.2
			c1.1,0.4,1,0.4,0.7,2.6c-0.5,0.4-1,0.3-1.6,0.1C491.9,71,492.1,70.2,492.3,69.2z M475.7,63.5c0-1.1,0-1.9,0-2.8
			c6.1,0,12.1,0,18.2,0c0.7,0.8,0.2,1.7,0.4,2.8C488,63.5,482,63.5,475.7,63.5z M461.6,83.4c10.9,0,21.6,0,32.3,0
			c0.4,1,0.4,1.8,0,2.8c-10.6,0-21.3,0-31.9,0C461.3,85.4,461.8,84.4,461.6,83.4z M471.6,92.8c-1.2,0-2.2,0-3.2,0
			c-0.7-1-0.5-2-0.1-3c1.1-0.3,2.2-0.3,3.3,0C472.1,90.8,472,91.7,471.6,92.8z M465.8,92.7c-0.7,0.4-1.3,0.4-1.9,0
			c-0.3-0.9-0.3-1.8,0-2.6c0.6-0.7,1.2-0.4,1.8-0.4C466.2,90.8,466.1,91.7,465.8,92.7z M461.3,89.6c0.5,1.2,0.3,2.2,0.2,3.2
			c-0.9,0.4-1.8,0.6-1.8-0.7C459.7,91.1,459,89.5,461.3,89.6z M454,90c1-0.7,2-0.4,3.1-0.3c0.7,0.9,0.3,1.9,0.3,2.9
			c-1.2,0.4-2.3,0.5-3.3-0.1C453.8,91.7,453.8,90.8,454,90z M451.2,98.6c-0.6-0.9-0.3-1.8-0.3-2.9c8,0,15.8,0,23.6,0
			c0.8,0.7,0.4,1.7,0.3,2.9C466.8,98.6,459,98.6,451.2,98.6z M468.4,106.8c0-1,0-1.9,0-2.9c3.5,0,7,0,10.4,0
			c0.4,0.9,0.3,1.8,0.1,2.9C475.2,106.8,471.9,106.8,468.4,106.8z M494.1,122.3c-10.4,0-20.8,0-31.5,0c0-1.1,0-2.1,0-3.2
			c10.5,0,20.9,0,31.5,0C494.1,120.1,494.1,121.1,494.1,122.3z M489.8,114.2c0.9-0.6,1.6-0.6,2.4,0c-0.1,0.9-0.1,1.8-0.2,2.7
			c-0.7,0.4-1.3,0.4-2.1-0.1C489.9,116,489.8,115.1,489.8,114.2z M494.1,111.4c-1.6,0.4-3.1,0.2-4.7,0.2c-0.6-1-0.3-1.8-0.2-2.8
			c1.6-0.6,3.1-0.2,4.7-0.3C494.4,109.7,494.3,110.5,494.1,111.4z M456.5,132.7c-0.6-1.1-0.3-2.2-0.2-3.5c1.9-0.4,1.6,0.8,1.6,1.7
			C457.9,131.7,458.2,132.9,456.5,132.7z M494.2,132.5c-9.4,0-18.7,0-28,0c-0.3-1.1-0.3-2.1,0-3.3c9.2,0,18.4,0,27.8,0
			C494.5,130.2,494.2,131.3,494.2,132.5z M492.9,150.7c1.4-0.4,1.4,0.6,1.4,1.4c0,0.9,0.1,1.8-1.5,1.5
			C492.4,152.6,492.3,151.6,492.9,150.7z M492.2,170.1c0.5,1.2,0.3,2.1,0.2,3.1c-4.1,0-8.1,0-12,0c-0.6-1.2-0.3-2.1-0.3-3.1
			C484.3,170.1,488.2,170.1,492.2,170.1z M486.2,178.4c-1.9,0.1-2.5-0.8-2.1-2.7c0.7-0.5,1.3-0.6,2-0.2
			C486.5,176.5,486.5,177.4,486.2,178.4z M477.3,172.1c0.1,0.9,0.1,1.8-1.6,1.5c0-1.4,0-2.7,0-4
			C477.7,169.7,477.2,171.1,477.3,172.1z M481.6,175.5c0.2,0.9,0.3,1.7-0.1,2.5c-3.4,0-6.7,0-10.1,0c-0.8-0.8-0.4-1.6-0.3-2.5
			C474.7,175.5,478,175.5,481.6,175.5z M464.6,144.8c5.9,0,11.8,0,17.7,0c0.4,1.1,0.4,1.9,0.1,2.9c-6,0-12,0-17.9,0
			C464.2,146.7,464.2,145.8,464.6,144.8z M456.9,148.3c-1.1-1.5-1.1-2.6-0.1-4.1C458.3,145.8,458.3,146.9,456.9,148.3z M457.8,173.4
			c-2.5-0.9-1.4-2.2-1.4-3.4C458.8,170.4,457.6,171.9,457.8,173.4z M464.6,172.7c-1,0.7-1.9,0.6-2.7,0.2c-0.5-0.8-0.2-1.7-0.2-2.6
			c1.1-0.2,1.9-0.4,2.7,0.1C464.9,171.1,464.4,172,464.6,172.7z M465.9,162.8c-1.2,0.8-2.5,0.5-3.9,0.7c-0.2-1.4-1-2.6,0.4-3.6l0,0
			c2.2-0.9,4.4-0.1,6.4-0.4c0.8,1.1,0.4,2,0.4,2.8c-1,0.6-1.9,0.6-2.8,0.4C466.3,162.7,466.1,162.8,465.9,162.8z M467.4,173.7
			c-0.8-1.1-0.1-2.2-0.5-3.5c2.2,0,4.1,0,6.2,0c0,1.2,0,2.1,0,3.2C471.2,173.9,469.3,173.5,467.4,173.7z M473.1,182.6
			c-0.6,0.5-1.3,0.3-1.8,0.2c-0.5-1.2-0.4-2.1,0-3.1c0.7-0.1,1.2-0.2,1.8,0.2C473.4,180.9,473.4,181.8,473.1,182.6z M494,182.8
			c-6,0-12,0-18.2,0c-0.2-1.1-0.3-1.9,0.1-2.9c6,0,12,0,18,0C494.4,180.9,494.3,181.7,494,182.8z M494,197.9c-14.3,0-28.5,0-42.9,0
			c-0.7-0.8-0.2-1.7-0.3-2.8c14.5,0,28.8,0,43.1,0C494.4,195.9,494.3,196.8,494,197.9z M473.4,216c6.8,0,13.6,0,20.4,0
			c0.7,0.7,0.3,1.7,0.3,2.8c-6.8,0-13.7,0-20.8,0C473.4,217.9,473.4,217,473.4,216z M483.1,223.8c-2.6-0.8-1.7-2.3-1.6-3.8
			C484.1,220.3,483.1,222,483.1,223.8z M478.9,223.2c-2.1-0.1-2.1-0.1-1.9-2.6c0.5-0.7,1.1-0.4,1.9-0.4
			C479.1,221.4,479.2,222.3,478.9,223.2z M468,216.3c1.1-0.9,2.4-0.5,3.7-0.4c0.5,1.1,0.4,1.9,0.2,2.8c-1.2,0.5-2.4,0.3-3.6,0.2
			C467.7,218.1,468,217.3,468,216.3z M465.9,215.8c0.1,1.1,0.1,2,0.2,2.9c-0.8,0.6-1.4,0.5-2.3,0
			C464.1,217.5,462.9,215.6,465.9,215.8z M460.5,215.6c1.6,1,1,2.2,0.7,3.9C459.1,218.1,459.5,216.9,460.5,215.6z M454,216.2
			c1-0.5,2-0.4,3.1-0.3c0.6,1,0.2,1.9,0.3,2.9c-1.2,0.3-2.2,0.3-3.3,0C453.6,217.9,453.8,217.1,454,216.2z M451,222
			c7.9,0,15.7,0,23.9,0c0,0.9,0,1.7,0,2.8c-7.9,0-15.8,0-23.7,0C450.5,224,450.9,223.1,451,222z M455.5,232.8
			c-1,0.5-1.6,0.3-1.7-0.8c-0.1-1-0.4-2.2,1.5-2C455.9,230.9,455.8,231.8,455.5,232.8z M461.2,239.3c-3.4,0-6.7,0-10.1,0
			c-0.5-0.9-0.4-1.8,0-2.8c3.3,0,6.7,0,10.2,0C461.5,237.6,461.6,238.4,461.2,239.3z M470,233c-4,0-7.8,0-12,0c0-0.9,0-1.7,0-2.6
			c3.9,0,7.7,0,11.6,0C470.3,231.1,469.8,232,470,233z M494.2,239.3c-6.7,0-13.4,0-20.2,0c-0.5-0.8-0.3-1.7-0.1-2.7
			c6.7,0,13.3,0,20.2,0C494.2,237.6,494.2,238.3,494.2,239.3z M488.1,277c0.6,0.7,0.4,1.6,0.1,2.7c-8.6,0-17.3,0-26.2,0
			c0-1,0-1.7,0-2.7C470.7,277,479.4,277,488.1,277z M465.8,271.4c1.5,1.6,1.6,2.7,0.1,4C464.8,274.1,465,273,465.8,271.4z
			 M469.3,272.2c1.1-0.5,2.1-0.4,3.2-0.2c0.5,1,0.4,1.9,0.1,3c-1,0-2,0-3,0C469,274.2,469.3,273.2,469.3,272.2z M475.4,275
			c-0.5-1-0.4-1.9,0-2.9c5.6,0,11.2,0,16.8,0c0.7,0.9,0.3,1.8,0.3,2.9C486.6,275,481,275,475.4,275z M490.9,277.1
			c0.9-0.8,2-0.2,2.8-0.4c0.8,1,0.6,1.9,0.4,3.1c-1.1,0-2,0-3,0C490.6,279,490.9,278.1,490.9,277.1z M494.1,269.5
			c-5.2,0-10.1,0-15.1,0c-0.5-0.9-0.5-1.8,0-2.8c4.9,0,9.9,0,14.8,0C494.5,267.5,494.2,268.4,494.1,269.5z M494.2,261.9
			c0,1.1,0,1.9,0,2.9c-10.8,0-21.5,0-32.2,0c-0.6-0.9-0.2-1.8-0.3-2.9C472.5,261.9,483.2,261.9,494.2,261.9z M492.3,246.1
			c0.4,1.1,0.3,1.9,0.1,2.8c-0.6,0.5-1.2,0.4-2,0C490.4,247.6,489.8,246.1,492.3,246.1z M456.6,249c-0.8-0.7-0.2-1.6-0.4-2.8
			c8.1,0,15.8,0,23.6,0c0,1,0,1.8,0,2.8C472.1,249,464.4,249,456.6,249z M456.3,272.2c2.1-0.5,4.1-0.3,6.1-0.2
			c0.8,0.9,0.4,1.9,0.4,3.1c-2.3,0-4.3,0-6.4,0C456,274.1,456.2,273.2,456.3,272.2z M460.2,279.4c-0.7,0.7-1.4,0.5-2.2,0.4
			c0-1,0-1.9,0-2.8c0.7-0.5,1.3-0.2,2-0.1C460.1,277.9,460.2,278.7,460.2,279.4z M456.3,285.7c0-1.2,0-2.2,0-3.4c3.4,0,6.8,0,10.2,0
			c0.8,0.9,0.1,2.1,0.6,3.4C463.4,285.7,460,285.7,456.3,285.7z M466,295.3c0-1,0-1.8,0-3c2.6,0.1,1.5,1.9,1.8,2.9
			C467.2,295.8,466.7,295.7,466,295.3z M470.3,292.6c7.8,0,15.7,0,23.6,0c0.6,0.8,0.2,1.8,0.3,2.8c-7.9,0-15.8,0-24,0
			C470,294.5,469.9,293.7,470.3,292.6z M494.1,306.2c-6.7,0-13.5,0-20.2,0c-0.3-1.1-0.3-2.1,0-3.3c6.7,0,13.4,0,20.3,0
			C494.1,304,494.1,305,494.1,306.2z M494.2,326.6c-0.7,0.4-1.3,0.4-2-0.1c0-0.7,0-1.4,0-2c0.6-0.7,1.2-0.4,1.8-0.4
			C494.4,325,494.4,325.8,494.2,326.6z M494.2,301.2c-0.6,0.5-1.2,0.4-1.9,0.1c-0.4-1-0.3-1.9,0-2.7c0.7-0.4,1.3-0.3,1.8,0
			C494.5,299.5,494.4,300.3,494.2,301.2z M494.3,223.3c-2.9,0-5.7,0-8.6,0c-0.6-1-0.3-1.9-0.2-3.1c3,0,5.8,0,8.6,0
			C494.6,221.3,494.4,222.2,494.3,223.3z"/>
	</g>
</g>
</svg>
