<?xml version="1.0" encoding="utf-8"?>
<!-- Generator: Adobe Illustrator 24.2.3, SVG Export Plug-In . SVG Version: 6.00 Build 0)  -->
<svg version="1.1" id="Layer_1" xmlns="http://www.w3.org/2000/svg" xmlns:xlink="http://www.w3.org/1999/xlink" x="0px" y="0px"
	 viewBox="0 0 290 290" style="enable-background:new 0 0 290 290;" xml:space="preserve">
<style type="text/css">
	.st0{fill:#0078E8;}
	.st1{fill:#93C9FE;}
</style>
<g>
	<g>
		<path class="st0" d="M86.37,211.2c1.81-7.29,3.65-14.72,5.53-22.31c40.73,11.69,69.19,39.8,95.41,71.29
			c13.29-7.56,26.4-15.02,39.73-22.6c-2.63-8.09-5.2-16.02-7.96-24.51c7.57-2.31,14.97-4.57,22.63-6.91
			c4.24,12.99,8.4,25.57,12.42,38.2c0.91,2.85-0.6,4.88-3.12,6.32c-20.87,11.92-41.73,23.86-62.58,35.82
			c-3.05,1.75-5.48,1.08-8-1.24c-24.39-22.47-44.15-50.19-74.92-65.42C99.24,216.74,92.76,214.07,86.37,211.2z"/>
		<path class="st0" d="M116.74,61.6c5.45,5.2,11.01,10.49,16.69,15.91c-30.56,29.18-69.3,39.61-109.87,46.42
			c-0.05,15.22-0.11,30.21-0.16,45.47c8.37,1.79,16.57,3.53,25.35,5.41c-1.77,7.67-3.5,15.16-5.29,22.92
			c-13.44-2.85-26.5-5.56-39.52-8.42C1.02,188.67,0,186.36,0,183.48c0.04-23.91,0.05-47.82,0.05-71.73c0-3.5,1.79-5.25,5.08-6.26
			c31.79-9.74,65.84-12.88,94.51-31.74C105.47,69.91,111.04,65.67,116.74,61.6z"/>
		<path class="st0" d="M231.72,162.48c-7.26,2.09-14.66,4.22-22.22,6.4c-10.17-40.88,0.11-79.41,14.45-117.71
			c-13.24-7.65-26.29-15.2-39.57-22.87c-5.74,6.31-11.37,12.48-17.39,19.1c-5.8-5.36-11.47-10.59-17.34-16.01
			c9.21-10.14,18.09-20.01,27.1-29.78c2.03-2.2,4.56-1.92,7.07-0.48c20.83,11.99,41.67,23.96,62.53,35.91
			c3.06,1.75,3.68,4.17,2.92,7.5c-7.4,32.21-21.69,63.07-19.58,97.15C230.11,148.63,231.03,155.54,231.72,162.48z"/>
	</g>
	<g>
		<path class="st1" d="M203.85,78.65c-1.88,7.55-3.71,14.88-5.59,22.43c-40.82-11.72-69.21-39.9-95.43-71.29
			c-13.34,7.6-26.36,15.03-39.66,22.61c2.62,8.15,5.16,16.07,7.9,24.59c-7.64,2.29-14.96,4.48-22.63,6.78
			c-4.2-12.93-8.35-25.42-12.27-37.97c-0.82-2.62,0.22-4.92,2.9-6.44c20.55-11.7,41.07-23.43,61.54-35.27
			c3.75-2.17,6.47-1.87,9.72,1.19c25.21,23.7,46.08,52.46,78.98,67.24C194.07,74.65,198.94,76.58,203.85,78.65z"/>
		<path class="st1" d="M173.34,229.27c-5.64-5.4-11.12-10.63-16.76-16.03c30.63-29.25,69.4-39.58,109.88-46.43
			c0.04-15.27,0.08-30.18,0.11-45.42c-8.42-1.82-16.59-3.6-25.39-5.51c1.82-7.71,3.57-15.11,5.4-22.86
			c13.38,2.85,26.34,5.52,39.25,8.43c2.69,0.61,4.18,2.64,4.17,5.72c-0.07,23.52-0.1,47.04-0.01,70.57c0.02,4.31-1.6,6.5-5.9,7.77
			c-33.27,9.83-68.78,13.41-98.12,34.32C181.72,222.86,177.6,226.08,173.34,229.27z"/>
		<path class="st1" d="M57.97,127.63c7.53-2.16,14.83-4.25,22.35-6.41c10.19,40.97-0.18,79.48-14.44,117.72
			c13.3,7.67,26.28,15.15,39.55,22.8c5.8-6.33,11.43-12.47,17.5-19.09c5.81,5.42,11.39,10.63,17.23,16.07
			c-9.17,10.08-17.98,19.9-26.97,29.54c-1.87,2.01-4.39,2.27-7.07,0.73c-20.48-11.82-40.97-23.61-61.53-35.29
			c-3.77-2.14-4.87-4.63-3.83-8.96c8.06-33.53,22.69-65.87,19.13-101.55C59.37,138.03,58.62,132.88,57.97,127.63z"/>
	</g>
</g>
</svg>
