<?xml version="1.0" encoding="UTF-8" standalone="no"?>
<svg
   xmlns:dc="http://purl.org/dc/elements/1.1/"
   xmlns:cc="http://creativecommons.org/ns#"
   xmlns:rdf="http://www.w3.org/1999/02/22-rdf-syntax-ns#"
   xmlns:svg="http://www.w3.org/2000/svg"
   xmlns="http://www.w3.org/2000/svg"
   xmlns:sodipodi="http://sodipodi.sourceforge.net/DTD/sodipodi-0.dtd"
   xmlns:inkscape="http://www.inkscape.org/namespaces/inkscape"
   viewBox="0 0 1000.001 173.825"
   height="173.825"
   width="1000.001"
   version="1.1"
   id="svg5258"
   inkscape:version="0.91 r13725"
   sodipodi:docname="Roblox 2017 Monochrome.svg">
  <sodipodi:namedview
     pagecolor="#ffffff"
     bordercolor="#666666"
     borderopacity="1"
     objecttolerance="10"
     gridtolerance="10"
     guidetolerance="10"
     inkscape:pageopacity="0"
     inkscape:pageshadow="2"
     inkscape:window-width="1366"
     inkscape:window-height="705"
     id="namedview4144"
     showgrid="false"
     inkscape:zoom="0.5"
     inkscape:cx="603.81754"
     inkscape:cy="-13.590414"
     inkscape:window-x="-8"
     inkscape:window-y="-8"
     inkscape:window-maximized="1"
     inkscape:current-layer="svg5258" />
  <metadata
     id="metadata5264">
    <rdf:RDF>
      <cc:Work
         rdf:about="">
        <dc:format>image/svg+xml</dc:format>
        <dc:type
           rdf:resource="http://purl.org/dc/dcmitype/StillImage" />
        <dc:title></dc:title>
      </cc:Work>
    </rdf:RDF>
  </metadata>
  <defs
     id="defs5262" />
  <path
     id="path4498"
     d="M 198.43495,3.0517578e-6 162.60908,137.99793 300.60703,173.825 336.43289,35.827073 198.43495,3.0517578e-6 Z M 0,15.340573 0,158.50483 l 63.326806,0 0,-53.00616 c 8.943864,0 15.509974,4.31529 19.700447,12.94642 4.253023,8.63114 6.974576,21.98439 8.162918,40.05974 l 65.765359,0 c -3.00213,-28.08246 -12.22767,-50.942 -27.67615,-68.579527 10.88273,-7.63043 16.32464,-18.20121 16.32464,-31.71081 0,-12.25872 -4.62831,-22.45316 -13.88488,-30.58394 -9.25659,-8.19332 -21.985,-12.28998 -38.184018,-12.28998 L 0,15.340573 Z m 350.64539,0 0,143.164257 99.91472,0 c 15.51103,0 27.5513,-3.59607 36.11989,-10.78867 8.63114,-7.19262 12.94642,-16.7933 12.94642,-28.80183 0,-7.69297 -1.90675,-14.10378 -5.72196,-19.232417 -3.81521,-5.19119 -9.41362,-9.7263 -16.79386,-13.60407 12.44634,-7.06752 18.66958,-17.32408 18.66958,-30.77114 0,-12.32126 -4.69043,-22.04737 -14.07209,-29.17745 -9.31913,-7.19261 -23.1419,-10.78868 -41.46742,-10.78868 l -89.59528,0 z m 168.12464,0 0,143.164257 118.9599,0 0,-35.93148 -55.53949,0 0,-107.232777 -63.42041,0 z m 298.47571,0 55.91511,70.73727 -55.91511,72.426987 68.86153,0 21.8594,-28.42619 22.70302,28.42619 69.33081,0 -57.60363,-72.801407 54.13299,-70.36285 -68.76794,0 -20.17086,26.36207 -21.10813,-26.36207 -69.23719,0 z m -159.74931,0.28562 0,142.572617 142.57261,0 0,-142.572617 -142.57261,0 z m -243.43063,28.5162 3.84625,0 c 11.13291,0 16.70026,4.62831 16.70026,13.88488 0,5.12864 -1.43964,8.75577 -4.31668,10.88229 -2.87705,2.06397 -7.75503,3.0962 -14.63492,3.0962 l -1.59491,0 0,-27.86337 z m -350.738994,0.65644 3.846246,0 c 5.378823,0 9.224584,1.43843 11.538733,4.31548 2.314142,2.8145 3.471819,6.09876 3.471819,9.85142 0,8.94387 -5.691597,13.41565 -17.074685,13.41565 l -1.782113,0 0,-27.58255 z m 176.327154,25.32761 26.65249,6.91964 -6.91964,26.652477 -26.65128,-6.919627 6.91843,-26.65249 z m 475.36089,3.01819 27.53577,0 0,27.535737 -27.53577,0 0,-27.535737 z m -300.94905,22.87825 4.40909,0 c 11.82089,0 17.73232,5.378567 17.73232,16.136217 0,5.44136 -1.56386,9.28832 -4.6911,11.53993 -3.06467,2.18906 -8.22462,3.28341 -15.47977,3.28341 l -1.97054,0 0,-30.959557 z"
     style="color:#000000;font-style:normal;font-variant:normal;font-weight:bold;font-stretch:normal;font-size:314px;line-height:125%;font-family:'Gill Sans Ultra Bold';-inkscape-font-specification:'Gill Sans Ultra Bold, Bold';text-align:start;writing-mode:lr-tb;text-anchor:start;clip-rule:nonzero;visibility:visible;isolation:auto;mix-blend-mode:normal;color-interpolation:sRGB;color-interpolation-filters:linearRGB;solid-color:#000000;solid-opacity:1;fill:#000000;fill-opacity:1;fill-rule:nonzero;stroke:none;stroke-width:12;stroke-linecap:butt;stroke-linejoin:miter;stroke-miterlimit:4;stroke-dasharray:none;stroke-dashoffset:0;stroke-opacity:1;color-rendering:auto;image-rendering:auto;shape-rendering:auto;text-rendering:auto"
     inkscape:connector-curvature="0" />
</svg>
