<svg width="14" height="94" viewBox="0 0 14 94" fill="none" xmlns="http://www.w3.org/2000/svg">
<path fill-rule="evenodd" clip-rule="evenodd" d="M7.38919 15.1356C7.76337 15.1356 8.13168 15.1098 8.49251 15.0599L7.96807 78.9793C7.5268 78.9037 7.07354 78.8644 6.61132 78.8644C6.25798 78.8644 5.90988 78.8874 5.56838 78.932L6.09267 15.0308C6.51492 15.0998 6.94797 15.1356 7.38919 15.1356Z" fill="#93C9FE"/>
<path d="M12.8001 6.77119C12.8001 9.87529 10.3505 12.3424 7.38894 12.3424C4.42737 12.3424 1.97783 9.87529 1.97783 6.77119C1.97783 3.66708 4.42737 1.2 7.38894 1.2C10.3505 1.2 12.8001 3.66708 12.8001 6.77119Z" stroke="#93C9FE" stroke-width="2.4"/>
<path d="M12.0222 87.2288C12.0222 90.3329 9.57268 92.8 6.61111 92.8C3.64954 92.8 1.2 90.3329 1.2 87.2288C1.2 84.1247 3.64954 81.6576 6.61111 81.6576C9.57268 81.6576 12.0222 84.1247 12.0222 87.2288Z" stroke="#93C9FE" stroke-width="2.4"/>
</svg>
