<svg xmlns="http://www.w3.org/2000/svg" viewBox="0 0 410.46 512"><defs><style>.cls-1{fill:#6d983f;}</style></defs><g id="Layer_2" data-name="Layer 2"><path class="cls-1" d="M649,351.24a9.93,9.93,0,0,0-3.52,1.39q-20.49,10.29-41,20.62-25,12.66-50,25.37c-3.35,1.7-6.66,3.49-10,5.2a11.61,11.61,0,0,1-2.29.83.55.55,0,0,1-.66-.63,7.28,7.28,0,0,1,1.25-2.88q3.62-6.47,7.28-12.9l19.17-33.74,16.54-29.14q6.45-11.36,12.87-22.71c.51-.91.94-1.87,1.4-2.79-.67-.59-.94,0-1.19.28Q585,316.37,571.16,332.62,558.26,347.8,545.39,363c-6.09,7.16-12.24,14.28-18.36,21.42-1.22,1.43-2.42,2.88-3.66,4.29-.37.43-.8,1-1.46.73s-.57-1-.51-1.52c.28-2.57.61-5.13.93-7.7q1.24-10,2.5-19.94l2.49-19.93c.82-6.53,1.62-13.06,2.44-19.59s1.66-13.3,2.5-19.94q1.2-9.63,2.41-19.24c.42-3.38.88-6.76,1.29-10.14a4.78,4.78,0,0,0,0-2.46c-.94.13-.84,1-1,1.55q-3.48,11.1-6.89,22.24-4.6,15-9.17,30Q512.24,344.39,505.6,366q-2.7,8.76-5.41,17.53a10.83,10.83,0,0,1-.71,1.6.7.7,0,0,1-1.17,0,5.77,5.77,0,0,1-.41-1c-.43-1.47-.87-2.94-1.26-4.41q-7.81-30-15.62-60.09-7-26.79-14-53.57c-.17-.67-.39-1.33-.62-2.08-.83.41-.52,1-.44,1.48a59.54,59.54,0,0,1,.52,6.67c.33,5.16.75,10.31,1.14,15.46.05.71.13,1.41.17,2.11.29,5.05.52,10.09.87,15.13.59,8.21,1.29,16.4,1.88,24.6.35,4.92.55,9.86.89,14.78s.76,9.84,1.14,14.76c.05.58.11,1.17.15,1.75q.94,14.07,1.87,28.14a6.05,6.05,0,0,1-.06,1,.74.74,0,0,1-1.12.4c-.64-.69-1.27-1.39-1.84-2.13q-7.44-9.63-14.84-19.29-22.68-29.5-45.33-59-5-6.43-9.92-12.84c-.64-.82-1.3-1.63-2-2.5-.62.78-.07,1.25.16,1.7q8.53,16.23,17.11,32.44,3.87,7.33,7.72,14.67c3.92,7.51,7.8,15,11.74,22.53q8.61,16.4,17.28,32.75c.17.31.35.62.5.94.29.62.93,1.36.45,1.93-.75.91-1.5-.06-2.15-.41q-14.72-8-29.41-16.05c-6-3.27-12-6.52-18-9.8l-35-19.13q-9-4.9-18-9.78a8.89,8.89,0,0,0-3.19-1.38c-.16,1.18.73,1.52,1.3,2,4.08,3.37,8.2,6.69,12.29,10.05q11.31,9.29,22.6,18.59l24.55,20.12,22.88,18.82c2.54,2.09,5.09,4.17,7.63,6.27a7.72,7.72,0,0,1,1,1,.92.92,0,0,1,.2.63c-.07.4-.44.52-.79.51-1.41-.06-2.82-.09-4.22-.24q-8.94-.92-17.87-1.89c-5.49-.6-11-1.23-16.47-1.82-5.25-.56-10.51-1.09-15.77-1.65-5.84-.62-11.68-1.27-17.52-1.88-5.61-.58-11.22-1.13-16.83-1.69l-8.06-.83-19.63-2.05c-1.5-.16-3-.37-4.63-.58.49,1,1.25.94,1.88,1.13q34.2,10,68.38,20,20.49,6,41,11.93c2,.6,4,1.29,6,1.95a.62.62,0,0,1,.48.8.88.88,0,0,1-.42.52,23.71,23.71,0,0,1-2.32.83l-78.86,23.12q-15.74,4.62-31.46,9.28c-1,.3-2,.63-3.24,1a1.93,1.93,0,0,0,1.94.4c2.57-.25,5.13-.58,7.7-.88,7.7-.89,15.41-1.76,23.11-2.66,4.9-.58,9.79-1.22,14.69-1.79s10-1.13,15.06-1.7l14.7-1.73,15.4-1.79c5-.59,10-1.19,15-1.77q6.14-.69,12.26-1.34a.7.7,0,0,1,.57.29.66.66,0,0,1,0,.64,20.77,20.77,0,0,1-2,2c-6.82,5.77-13.67,11.5-20.48,17.28-8.6,7.31-17.16,14.66-25.76,22q-12.63,10.72-25.3,21.41-10,8.45-19.88,16.91c-.32.27-.77.55-.56,1.14.9.23,1.54-.39,2.23-.75q18.12-9.5,36.22-19,9.53-5,19.07-10c5.42-2.83,10.82-5.71,16.27-8.47a10.55,10.55,0,0,0,4.32-4c3.53-5.7,7.14-11.35,10.71-17,1.38-2.19,2.8-4.35,4.08-6.6a5.12,5.12,0,0,1,5.12-2.94c4.23.17,8.46.05,12.7,0q1.23,0,2.46-.12a.7.7,0,0,0,.46-.44.77.77,0,0,0-.23-.61,16.14,16.14,0,0,0-1.39-1.08c-2.59-1.83-5.19-3.64-7.79-5.48-.67-.47-1.33-1-2-1.49a1.53,1.53,0,0,1-.39-1.92,13.66,13.66,0,0,1,.87-1.53l23.69-38q10.26-16.47,20.51-32.94c.32-.49.58-1,.94-1.49.19-.25.59-.56.82-.51.59.13.5.7.39,1.13-.24.91-.53,1.8-.81,2.7q-9.59,30.82-19.17,61.64c-1.93,6.17-3.9,12.33-5.82,18.5-.39,1.24-.71,2.49-1,3.75a1.2,1.2,0,0,0,1.17,1.45c1.17.09,2.35.11,3.53.11h61.38c1.18,0,2.36,0,3.53,0a7.12,7.12,0,0,1,4,1.18c5.82,3.77,11.66,7.51,17.49,11.27a4.07,4.07,0,0,1,.82.67.82.82,0,0,1,.21.6c0,.18-.28.44-.44.45-1.29.08-2.58.14-3.87.14H471.43c-1.17,0-2.35,0-3.53,0a2.73,2.73,0,0,0-2.85,2.14c-.54,1.68-1.12,3.34-1.66,5-1.33,4.14-2.63,8.29-4,12.43q-9.51,29.37-19.05,58.72-7.67,23.65-15.3,47.32c-.65,2-1.23,4-1.88,6.07a16,16,0,0,1-.9,2.29,1.22,1.22,0,0,1-1.48.67,24.45,24.45,0,0,1-2.65-.93A183.58,183.58,0,0,1,390,617.55a209.78,209.78,0,0,1-42.61-35.65c-5.16-5.81-10.23-11.67-14.8-17.95A188.4,188.4,0,0,1,310.3,524,204.64,204.64,0,0,1,300,492.18a214.43,214.43,0,0,1-3.85-22.94,204.31,204.31,0,0,1-1.33-27.09,214.48,214.48,0,0,1,2.26-26.68,185.82,185.82,0,0,1,8.34-34.58c6.77-19.58,16-37.9,28.56-54.45,4-5.24,8.16-10.32,12.61-15.19,2.93-3.21,5.83-6.46,9-9.44a228.59,228.59,0,0,1,26.6-22,197,197,0,0,1,27.66-16.22c16.66-7.89,33.93-13.89,52.21-16.77,5.46-.85,10.92-1.52,16.43-2.06,10.92-1.06,21.86-.82,32.77-.41a159.79,159.79,0,0,1,23.43,2.84,205.26,205.26,0,0,1,41.51,12.33,201.42,201.42,0,0,1,26.07,13.26,208.47,208.47,0,0,1,29,21.16,201,201,0,0,1,41.76,50.21,203.27,203.27,0,0,1,25.28,69.93A154.8,154.8,0,0,1,700.79,439c0,2.34.49,4.69.44,7-.14,6.93-.43,13.85-1.08,20.76a196.58,196.58,0,0,1-4.25,26.08A211.53,211.53,0,0,1,684.36,528,194.9,194.9,0,0,1,666,561.27a207.89,207.89,0,0,1-18.92,23.67,225.49,225.49,0,0,1-16.87,16c-3.89,3.43-4.11,2.65-6.21-.85q-19.66-32.83-39.38-65.64-4.9-8.16-9.8-16.33c-.54-.91-1-1.86-1.45-2.82a.65.65,0,0,1,.19-.59.77.77,0,0,1,.63-.11,4.38,4.38,0,0,1,1,.44q18.79,10.49,37.57,21,14.32,8,28.69,15.91a36.8,36.8,0,0,0,4.62,2.5c0-1.18-.66-1.52-1.16-1.94-5.61-4.83-11.26-9.62-16.88-14.44-4-3.45-8-6.94-12-10.39-6.32-5.46-12.65-10.89-19-16.35-6.14-5.31-12.24-10.64-18.37-15.95-4-3.47-8-6.89-12-10.35q-7.08-6.11-14.12-12.25a9.87,9.87,0,0,1-1.42-1.54.53.53,0,0,1,.31-.84,3.94,3.94,0,0,1,1.37,0l27.19,4.13,26.84,4.06c6.74,1,13.47,2.09,20.21,3.12,10.22,1.56,20.45,3.09,30.67,4.65,5.8.88,11.6,1.78,17.49,2.69,0-.9-.68-.87-1.11-1q-9.63-3.45-19.28-6.84-24.63-8.62-49.28-17.22-22.14-7.77-44.24-15.6c-.78-.27-1.57-.52-2.31-.86a1.26,1.26,0,0,1-.67-.73c-.13-.6.43-.75.86-.89.78-.24,1.58-.45,2.37-.65l73.71-17.84,40.45-9.77a7.22,7.22,0,0,0,2.23-.86c-1.74,0-3.49-.09-5.23,0q-9.66.58-19.33,1.27c-5.16.37-10.31.78-15.46,1.17l-1.06.09c-5.39.29-10.79.53-16.19.87-5,.32-10.07.75-15.11,1.14-.46,0-.93.09-1.4.12-5.52.29-11,.53-16.54.88-4.93.31-9.84.75-14.76,1.13-.82.07-1.64.15-2.46.14-3.54,0-7,.36-10.55.69-1.17.11-2.35.07-3.53.08-.46,0-1,0-1.25-.41-.32-.7.35-1.05.79-1.38q6.15-4.74,12.33-9.42,20.54-15.54,41.08-31.06,19-14.37,37.94-28.78C647.79,352.77,648.61,352.47,649,351.24Z" transform="translate(-294.77 -244)"/><path class="cls-1" d="M666.7,706.55A8.84,8.84,0,0,0,669,703c3.1-6.72,6.24-13.43,9.24-20.19a4.51,4.51,0,0,1,4.61-3c6.58,0,13.16,0,19.74,0a8.56,8.56,0,0,1,1.74.23,1.13,1.13,0,0,1,.72,1.67c-.61,1.14-1.24,2.27-1.94,3.35Q692.07,702.4,681,719.79q-6.06,9.51-12.08,19.05a84.45,84.45,0,0,1-6.21,8.56,20.43,20.43,0,0,1-15.95,7.77c-4.7.1-9.4,0-14.1,0-.24,0-.47,0-.71,0-2.37-.18-2.92-.83-2.34-3.17.78-3.19,1.73-6.34,2.57-9.53a2.79,2.79,0,0,1,3.09-2.28,26.84,26.84,0,0,0,5.58-.66,4.94,4.94,0,0,0,3.83-3.28,10.62,10.62,0,0,0,.63-5.18c-.69-6.89-1.3-13.79-1.95-20.69-.48-5.14-1-10.29-1.46-15.43-.17-1.71-.75-2.32-2.46-2.36-2.94-.08-5.88,0-8.81,0a2.33,2.33,0,0,0-2.36,1.77c-.25.78-.47,1.57-.69,2.36-1.46,5.21-2.94,10.41-4.38,15.62a15,15,0,0,0-.81,4.85,2.86,2.86,0,0,0,2.42,3,14.33,14.33,0,0,0,2.45.25c.94.05,1.88,0,2.82.08,1.23.09,1.7.67,1.38,1.89-.85,3.18-1.77,6.33-2.67,9.5a2.71,2.71,0,0,1-2.85,2.14c-.59,0-1.17,0-1.76,0-6.11,0-12.23,0-18.34,0a15.14,15.14,0,0,1-5.54-.88,7.89,7.89,0,0,1-5.28-6.1,16.49,16.49,0,0,1,0-6.3c.78-4.53,2.29-8.88,3.51-13.29,3.19-11.55,6.46-23.08,9.69-34.62,1.31-4.66,1.31-4.67,6.3-4.68h16.22c.82,0,1.64,0,2.46,0,1.65.11,2.11.67,1.73,2.28-.47,2-1.06,3.86-1.58,5.78a14.63,14.63,0,0,0-.43,2.07,1,1,0,0,0,1,1.21,30.36,30.36,0,0,0,3.16.13c8.11,0,16.22,0,24.33,0a27.45,27.45,0,0,1,3.51.22,1.93,1.93,0,0,1,1.75,1.92c.07,1,.1,2.11.09,3.16q0,8.64-.08,17.28C666.69,703.47,666.7,704.64,666.7,706.55Z" transform="translate(-294.77 -244)"/><path class="cls-1" d="M428.69,729.49c-1.19.76-2.14,1.42-3.15,2a30.73,30.73,0,0,1-3.12,1.62,24,24,0,0,1-14.1,1.93c-7.46-1.4-10.67-6.27-10.27-13.34A75.47,75.47,0,0,1,406.63,691c4.07-7.83,10.71-11.64,19.35-12.06a18.67,18.67,0,0,1,13.13,4.2c.36.3.69.64,1.07.92.72.57,1.23.39,1.56-.56.2-.55.35-1.12.5-1.69L447,664.49c.18-.68.37-1.36.58-2a2.58,2.58,0,0,1,2.57-2c.47,0,.94,0,1.41,0h19.39c2.55.1,3,.56,2.3,3-1.7,6.24-3.48,12.45-5.22,18.68q-6.51,23.25-13,46.51c-.35,1.24-.76,2.47-1.17,3.7a2.39,2.39,0,0,1-2.39,1.73c-.58,0-1.17.05-1.76.05H432.06A18.63,18.63,0,0,1,430,734a1.4,1.4,0,0,1-1.4-1.65C428.58,731.51,429.09,730.76,428.69,729.49ZM425.41,712c0,.47,0,.94,0,1.41.06,2.58,2.15,3.71,4.34,3.38a4.13,4.13,0,0,0,3.7-3.22c1.15-4.18,2.42-8.33,3.63-12.49a11.16,11.16,0,0,0,.35-1.72,2,2,0,0,0-1.29-2.23,5.22,5.22,0,0,0-7,2.17,43.2,43.2,0,0,0-2.41,5.84A19.83,19.83,0,0,0,425.41,712Z" transform="translate(-294.77 -244)"/><path class="cls-1" d="M349.3,660.4h21.51c.94,0,1.88,0,2.82.05,1.47.09,1.93.65,1.64,2-.16.81-.4,1.6-.63,2.39-1,3.39-1.92,6.79-2.91,10.17-.86,2.94-1.16,3.16-4.15,3.25-.82,0-1.64,0-2.46,0H348.54c-.94,0-1.88,0-2.82.06a2.09,2.09,0,0,0-2.11,1.56c-.79,2.83-1.58,5.65-2.3,8.5-.24,1,.27,1.56,1.31,1.64s1.88.07,2.82.07h17.63a26.31,26.31,0,0,1,2.81.14,1.11,1.11,0,0,1,1,1.21,7.87,7.87,0,0,1-.26,1.74c-.91,3.28-1.8,6.57-2.77,9.84-1,3.45-1.11,3.51-4.61,3.53-6.11,0-12.22,0-18.34,0-.94,0-1.88,0-2.82,0a2.46,2.46,0,0,0-2.58,2c-.62,2.14-1.22,4.29-1.82,6.44-1.37,4.87-2.72,9.74-4.09,14.6-.19.68-.39,1.36-.62,2-.72,2.08-1,2.28-3.32,2.4-.58,0-1.17,0-1.76,0H307.34a26.3,26.3,0,0,1-2.81-.09c-1.39-.14-1.92-.8-1.71-2.1a23.65,23.65,0,0,1,.64-2.74q6.57-23.43,13.16-46.85,2.14-7.63,4.27-15.28c.23-.79.44-1.58.67-2.37,1.25-4.21,1.25-4.23,5.52-4.23C334.48,660.39,341.89,660.4,349.3,660.4Z" transform="translate(-294.77 -244)"/><path class="cls-1" d="M507.44,710.76H494.39c-.94,0-1.88,0-2.81.1a2,2,0,0,0-1.85,1.39,12.49,12.49,0,0,0-.77,5.54A3.33,3.33,0,0,0,493.1,721a5.1,5.1,0,0,0,3.27-1.93,6.84,6.84,0,0,0,1.25-2.1c.61-2.05,2-2.7,4-2.69,6.22,0,12.45,0,18.68,0a9.26,9.26,0,0,1,1.74.18,1.44,1.44,0,0,1,1.28,1.77,13.66,13.66,0,0,1-.67,2.37,21.28,21.28,0,0,1-5.94,8.19c-5.25,4.52-11.5,6.74-18.18,8a57.67,57.67,0,0,1-20.67-.37,23,23,0,0,1-6.9-2.57,11.74,11.74,0,0,1-5.69-6.9,20.55,20.55,0,0,1-1-9,61.3,61.3,0,0,1,6.5-21.1,27,27,0,0,1,14-12.85,37.27,37.27,0,0,1,15.08-3.11c4.34.07,8.7-.3,13,.71,1.71.4,3.43.82,5.09,1.38,6.15,2.08,9.27,6.53,9.79,12.89a20,20,0,0,1-.09,4.57q-.75,4.7-1.83,9.33c-.62,2.65-1.11,3-3.91,3-4.82.06-9.64,0-14.45,0Zm-9.55-11.2v-.14h2.78c2.17,0,3-1.6,2.74-3.57a3.8,3.8,0,0,0-4.71-3,6.63,6.63,0,0,0-4.94,5.28.9.9,0,0,0,.67,1.07C495.58,699.39,496.74,699.45,497.89,699.56Z" transform="translate(-294.77 -244)"/><path class="cls-1" d="M558,660.4h8.45a22.57,22.57,0,0,1,2.47.09c1.22.13,1.72.71,1.55,1.85a23.28,23.28,0,0,1-.62,2.75Q563.39,688,557,710.9q-2.24,8-4.47,15.94c-.44,1.59-.87,3.17-1.37,4.74-.67,2-1.08,2.44-3.29,2.45-6.7.06-13.4,0-20.09,0a7.31,7.31,0,0,1-1.4-.15,1.49,1.49,0,0,1-1.22-1.82,18.1,18.1,0,0,1,.48-2.06q9.27-33.07,18.55-66.15c.12-.46.28-.9.4-1.36a2.59,2.59,0,0,1,2.84-2.08c3.53,0,7,0,10.58,0Z" transform="translate(-294.77 -244)"/><path class="cls-1" d="M571,734.07c-3.05,0-6.1,0-9.16,0a14.39,14.39,0,0,1-2.44-.23,1,1,0,0,1-.8-1,16.1,16.1,0,0,1,.48-2.76q4-14.41,8.1-28.83c1.56-5.54,3.09-11.08,4.66-16.62,1.39-4.86,1.41-4.87,6.53-4.88h15.16c.58,0,1.17,0,1.76,0,3.36.13,3.73.59,2.84,3.8q-6.6,23.58-13.23,47.15c-.06.22-.12.45-.19.67-.76,2.3-1.12,2.65-3.49,2.7-3.4.06-6.81,0-10.22,0Z" transform="translate(-294.77 -244)"/><path class="cls-1" d="M374.67,734.08h-9.16a14.93,14.93,0,0,1-1.76-.09c-1-.12-1.51-.69-1.38-1.64a18.15,18.15,0,0,1,.52-2.41q6.5-23.23,13-46.46c.13-.46.28-.9.4-1.35a3,3,0,0,1,3.11-2.34c.59,0,1.18,0,1.76,0,5.76,0,11.51,0,17.27,0,4.11,0,4.39.35,3.31,4.25-2.88,10.41-5.82,20.81-8.73,31.21q-2.1,7.45-4.19,14.92c-1.1,3.92-1.13,3.94-5.35,4C380.54,734.09,377.61,734.08,374.67,734.08Z" transform="translate(-294.77 -244)"/><path class="cls-1" d="M391.06,675.48h-8.79a22.21,22.21,0,0,1-2.45-.13,1.32,1.32,0,0,1-1.17-1.48,4.08,4.08,0,0,1,.11-.7c.95-3.38,1.85-6.78,2.89-10.14.69-2.22,1.18-2.58,3.57-2.6,6.56,0,13.12,0,19.69,0a7.27,7.27,0,0,1,1.39.13,1.52,1.52,0,0,1,1.33,1.76,5.17,5.17,0,0,1-.18,1c-.91,3.28-1.85,6.54-2.76,9.82a2.84,2.84,0,0,1-3.08,2.29H391.06Z" transform="translate(-294.77 -244)"/><path class="cls-1" d="M591.74,660.4c2.93,0,5.86,0,8.79,0a18.21,18.21,0,0,1,2.45.15,1.13,1.13,0,0,1,1,1.22,5.81,5.81,0,0,1-.17,1.39c-.92,3.27-1.82,6.55-2.8,9.8-.61,2-1.14,2.45-3.29,2.47-6.68.06-13.36,0-20,0a5.49,5.49,0,0,1-.7-.05c-1.54-.2-2.1-.89-1.9-2.33a7.26,7.26,0,0,1,.22-1c.86-3,1.68-6.1,2.61-9.13.63-2,1.12-2.43,3.27-2.48,3.52-.07,7,0,10.55,0Z" transform="translate(-294.77 -244)"/><path class="cls-1" d="M492.39,748.68c-1.28,1.75-2.37,3.12-3.33,4.57a4.18,4.18,0,0,1-4.16,2.07c-.7-.05-1.41,0-2.11-.09a2,2,0,0,1-2-1.72c-.29-1.58-.47-3.19-.7-4.77-.73,0-.77.57-.91,1-.44,1.34-.84,2.69-1.32,4a2.22,2.22,0,0,1-1.82,1.47c-3.41.62-4.33-.34-3.39-3.72.69-2.48,1.58-4.92,2.3-7.4a3,3,0,0,1,3.39-2.4c1.76,0,3.52,0,5.28.09,1.48.1,2.07.69,2.27,2.2.18,1.28.19,2.58.31,3.86a.68.68,0,0,0,.37.51.64.64,0,0,0,.6-.14c.93-1.36,1.87-2.71,2.7-4.12a4.35,4.35,0,0,1,4.32-2.42c1.76.1,3.53,0,5.29.08,1.38.07,1.87.76,1.47,2.15-.91,3.16-1.9,6.3-2.88,9.44a2.59,2.59,0,0,1-2.61,1.95c-3.42.09-4.64.19-3.29-3.7a15.63,15.63,0,0,0,.47-2.05C492.7,749.44,492.61,749.33,492.39,748.68Z" transform="translate(-294.77 -244)"/><path class="cls-1" d="M328.31,748.54c-.91.42-.78,1.37-1.05,2.11s-.57,1.79-.87,2.68a2.64,2.64,0,0,1-2.62,1.95c-3.12.13-3.95-.49-3-3.63.78-2.47,1.51-4.94,2.25-7.42a3.09,3.09,0,0,1,3.32-2.53c1.53,0,3.06-.05,4.59,0,2.12.1,2.52.45,3.21,2.58.29.89.49,1.82.79,2.7.11.31.37.72.62.77.61.14.74-.45.9-.87.41-1.1.79-2.22,1.16-3.33a2.58,2.58,0,0,1,2.68-1.85c2.83-.08,4.14,0,2.93,3.51-.9,2.55-1.62,5.16-2.41,7.74a2.9,2.9,0,0,1-3.09,2.34c-1.52,0-3.05,0-4.58,0a2.77,2.77,0,0,1-3.08-2.29c-.26-1-.57-2-.89-3C329,749.44,329,748.82,328.31,748.54Z" transform="translate(-294.77 -244)"/><path class="cls-1" d="M545.52,748.36c-.67,1.87-1.19,3.54-1.86,5.15s-3.9,2.48-5.41,1.28a1.26,1.26,0,0,1-.44-.9,5.69,5.69,0,0,1,.24-1.73c.8-2.69,1.67-5.37,2.47-8.07a2.9,2.9,0,0,1,3.05-2.38c1.76,0,3.52,0,5.28,0a2.56,2.56,0,0,1,2.61,1.95c.15.44.25.9.4,1.35.33,1,.33,2.08,1.16,2.85,1.41-.46,1.18-1.84,1.53-2.86,1.05-3,2.48-3.9,5.57-3.17a1.17,1.17,0,0,1,1,1.27,4,4,0,0,1-.15,1c-.88,2.92-1.8,5.83-2.66,8.75a3,3,0,0,1-3.39,2.4c-1.64,0-3.28,0-4.93-.06a2.31,2.31,0,0,1-2.33-1.78c-.32-1-.57-2-.87-3C546.56,749.78,546.62,749,545.52,748.36Z" transform="translate(-294.77 -244)"/><path class="cls-1" d="M426.79,741.66a12.23,12.23,0,0,1,4,.44,4.12,4.12,0,0,1,2.29,1.52,1.44,1.44,0,0,1-.82,2.23,7.07,7.07,0,0,1-5.12-.55,3.7,3.7,0,0,0-3-.43.9.9,0,0,0-.49.43.61.61,0,0,0,.4.84c1.12.33,2.26.61,3.39.9a10.72,10.72,0,0,1,3.58,1.39,2.77,2.77,0,0,1,.83,4,6,6,0,0,1-3.3,2.49,24.45,24.45,0,0,1-11.46.75,4.31,4.31,0,0,1-3-1.66,1.72,1.72,0,0,1,.95-2.78c1.75-.35,3.52-.52,5,.77a3.18,3.18,0,0,0,3.26.69A1.11,1.11,0,0,0,424,752a1,1,0,0,0-.41-.83c-.87-.35-1.78-.57-2.67-.85a25.6,25.6,0,0,1-3.66-1.18,2.7,2.7,0,0,1-1.16-4.13,6.41,6.41,0,0,1,3.61-2.64C421.72,741.65,423.83,741.62,426.79,741.66Z" transform="translate(-294.77 -244)"/><path class="cls-1" d="M603.68,756a27.76,27.76,0,0,1-3.16-.18,13.26,13.26,0,0,1-3-.89,2.05,2.05,0,0,1-1.22-2.3,1.85,1.85,0,0,1,1.76-1.46,5.42,5.42,0,0,1,4.66.94,3.13,3.13,0,0,0,3.61.42.83.83,0,0,0,.39-.54c0-.19-.08-.54-.22-.6-.86-.35-1.74-.66-2.62-.94a41.74,41.74,0,0,1-4-1.23c-2.07-.89-2.47-2.81-1.09-4.61a5.93,5.93,0,0,1,2.84-2,22.29,22.29,0,0,1,11.46-.52,3.58,3.58,0,0,1,2.15,1.12,1.75,1.75,0,0,1,.5,1.6,1.4,1.4,0,0,1-1.24,1.09,6.91,6.91,0,0,1-4.79-.54,3.54,3.54,0,0,0-3-.47.63.63,0,0,0-.16,1.08c.86.72,2,.65,3,1a32.71,32.71,0,0,1,3.66,1.22c1.7.82,2.07,2.49,1.12,4.16a5.93,5.93,0,0,1-3.61,2.63A20.39,20.39,0,0,1,603.68,756Z" transform="translate(-294.77 -244)"/><path class="cls-1" d="M364.63,748.47c1-.37,1.41-1.44,2.09-2.19a15,15,0,0,0,1.49-2c1.73-2.75,4.32-2.94,7.14-2.46a.93.93,0,0,1,.68,1.34,12.86,12.86,0,0,1-1,1.44c-2.27,2.85-4.6,5.65-6.8,8.55a5.26,5.26,0,0,1-4.54,2.16c-5.49.08-5.49.14-6.6-5.33-.37-1.85-.76-3.69-1.05-5.55-.34-2.22.06-2.65,2.4-2.76.35,0,.7,0,1.06,0,2.75,0,3.73.11,4.07,3.49a20.78,20.78,0,0,0,.74,3.07C364.32,748.33,364.47,748.37,364.63,748.47Z" transform="translate(-294.77 -244)"/><path class="cls-1" d="M517.39,755.27c-1.75,0-3.51.06-5.27,0-1.43-.06-1.91-.71-1.65-2,.16-.8.43-1.58.66-2.37.68-2.24,1.38-4.48,2-6.73a2.88,2.88,0,0,1,3-2.4c3.29,0,6.57,0,9.85,0a4.66,4.66,0,0,1,1,.15,1.26,1.26,0,0,1,1.1,1.17,1.49,1.49,0,0,1-.8,1.46,8.94,8.94,0,0,1-3.76.69c-1.05.08-2.1.16-3.13.34a1,1,0,0,0-.55.77,1,1,0,0,0,.61.72c1.4.16,2.8.2,4.2.33a1.18,1.18,0,0,1,1.22,1,1.46,1.46,0,0,1-1.1,1.59,15.92,15.92,0,0,1-4.19.31c-1.55.08-2.41.53-2.15,1.13.43,1,1.36.73,2.13.79,1.05.08,2.11.06,3.16.12a1.19,1.19,0,0,1,1.25,1,1.5,1.5,0,0,1-1,1.66,5.84,5.84,0,0,1-1.71.29c-1.64,0-3.29,0-4.93,0Z" transform="translate(-294.77 -244)"/><path class="cls-1" d="M392,755.29c-1.76,0-3.52.05-5.28,0-1.31,0-1.85-.65-1.53-1.76.93-3.27,1.94-6.53,2.95-9.77a2.58,2.58,0,0,1,2.59-2c3.64,0,7.27,0,10.91,0a1.25,1.25,0,0,1,1.33.94,1.59,1.59,0,0,1-.88,1.77,9.14,9.14,0,0,1-3.43.7c-1.05.08-2.11.12-3.15.27a1,1,0,0,0-.92.92c0,.56.46.78,1,.81,1.29.06,2.58.05,3.87.13,1,.05,1.48.52,1.44,1.18a1.57,1.57,0,0,1-1.23,1.53,15.17,15.17,0,0,1-2.44.25c-1.05.07-2.11.07-3.16.17a1,1,0,0,0-1,.86c0,.54.41.81.91.84,1.05.07,2.11.05,3.16.13s2.32-.15,2.59,1.22c.2,1-.45,1.85-2.78,1.83-1.64,0-3.29,0-4.93,0Z" transform="translate(-294.77 -244)"/><path class="cls-1" d="M454.83,741.76c2,0,4,0,5.95,0,1.13,0,1.73.58,1.77,1.33a2,2,0,0,1-1.47,2.11,3.13,3.13,0,0,1-1,.17c-2.36-.2-3.31,1.22-3.84,3.22-.42,1.58-.95,3.14-1.44,4.69a2.55,2.55,0,0,1-2.58,2c-.35,0-.7,0-1.05,0-3.39.07-3.73-.37-2.82-3.6.44-1.57,1-3.13,1.35-4.71a1.09,1.09,0,0,0-.79-1.37c-.56-.16-1.15-.22-1.72-.36a1.3,1.3,0,0,1-1.11-1.18,2,2,0,0,1,.82-1.84,3.21,3.21,0,0,1,2-.52c2,0,4,0,6,0Z" transform="translate(-294.77 -244)"/><path class="cls-1" d="M580.5,741.76c2,0,4,0,6,0,1.14,0,1.72.59,1.76,1.36a2,2,0,0,1-1.52,2.09,1.05,1.05,0,0,1-.34.08c-3.09-.33-4,1.68-4.62,4.15a41,41,0,0,1-1.23,4,2.41,2.41,0,0,1-2.38,1.75l-.7,0c-3.7.17-4.23-.48-3.2-4,.36-1.24.8-2.46,1.11-3.72s-.1-1.72-1.28-2.08c-.33-.1-.69-.12-1-.19-.61-.12-1.14-.39-1.21-1.07a1.92,1.92,0,0,1,1-2.08,5.22,5.22,0,0,1,2-.45c1.88-.05,3.76,0,5.64,0Z" transform="translate(-294.77 -244)"/><path class="cls-1" d="M300.9,755.32a17,17,0,0,1-1.7-.15,1.17,1.17,0,0,1-1-1.24,1.43,1.43,0,0,1,0-.36c1.07-3.48,2.11-7,3.23-10.43a2.12,2.12,0,0,1,1.91-1.36c.47,0,.94-.07,1.41-.08,3.27-.06,3.78.59,2.86,3.72-.66,2.26-1.38,4.49-2.09,6.73C304.61,755,304.26,755.3,300.9,755.32Z" transform="translate(-294.77 -244)"/><path class="cls-1" d="M693.37,729.85a7.2,7.2,0,0,1-7.26,7.07,7.3,7.3,0,0,1-7.11-6.86,7.19,7.19,0,1,1,14.37-.21ZM681,729.5a5.3,5.3,0,0,0,4.93,5.71,5.23,5.23,0,0,0,5.42-4.84,4.78,4.78,0,0,0-4.53-5.52C683.59,724.57,681.15,726.52,681,729.5Z" transform="translate(-294.77 -244)"/><path class="cls-1" d="M685.48,731.45c-.14.41-.26.84-.44,1.25a.64.64,0,0,1-.8.44.82.82,0,0,1-.48-.45,13.85,13.85,0,0,1-.07-4.89,1.66,1.66,0,0,1,1.62-1.56,6.83,6.83,0,0,1,1.75,0,2.19,2.19,0,0,1,1.91,2.81,5,5,0,0,0-.27,3.7c0,.12-.18.44-.35.52a1,1,0,0,1-.67,0C686.79,732.94,686.72,731.66,685.48,731.45Zm1.08-3c-.11-.14-.2-.38-.33-.4s-.31.16-.47.26c.11.14.2.38.33.4S686.4,728.53,686.56,728.43Z" transform="translate(-294.77 -244)"/></g></svg>